<mxfile host="Electron" modified="2024-02-02T14:08:02.646Z" agent="Mozilla/5.0 (Macintosh; Intel Mac OS X 10_15_7) AppleWebKit/537.36 (KHTML, like Gecko) draw.io/22.1.18 Chrome/120.0.6099.199 Electron/28.1.2 Safari/537.36" etag="tPQdqRUkuNj65wM-Ruyj" version="22.1.18" type="device" pages="7">
  <diagram name="Page-1" id="G3Ds86VxnuODa4t5qE7E">
    <mxGraphModel dx="979" dy="743" grid="1" gridSize="10" guides="1" tooltips="1" connect="1" arrows="1" fold="1" page="1" pageScale="1" pageWidth="827" pageHeight="1169" math="0" shadow="0">
      <root>
        <mxCell id="0" />
        <mxCell id="1" parent="0" />
        <mxCell id="6d7RA7EBXeTtU1A4HqyG-1" value="voting-service" style="shape=hexagon;perimeter=hexagonPerimeter2;whiteSpace=wrap;html=1;fixedSize=1;" parent="1" vertex="1">
          <mxGeometry x="172.5" y="390" width="90" height="80" as="geometry" />
        </mxCell>
        <mxCell id="6d7RA7EBXeTtU1A4HqyG-2" value="admin-service" style="shape=hexagon;perimeter=hexagonPerimeter2;whiteSpace=wrap;html=1;fixedSize=1;" parent="1" vertex="1">
          <mxGeometry x="324" y="390" width="90" height="80" as="geometry" />
        </mxCell>
        <mxCell id="6d7RA7EBXeTtU1A4HqyG-3" value="results-service" style="shape=hexagon;perimeter=hexagonPerimeter2;whiteSpace=wrap;html=1;fixedSize=1;" parent="1" vertex="1">
          <mxGeometry x="450" y="390" width="90" height="80" as="geometry" />
        </mxCell>
        <mxCell id="6d7RA7EBXeTtU1A4HqyG-4" value="monitoring-service" style="shape=hexagon;perimeter=hexagonPerimeter2;whiteSpace=wrap;html=1;fixedSize=1;" parent="1" vertex="1">
          <mxGeometry x="580" y="390" width="90" height="80" as="geometry" />
        </mxCell>
        <mxCell id="6d7RA7EBXeTtU1A4HqyG-5" value="" style="shape=cylinder3;whiteSpace=wrap;html=1;boundedLbl=1;backgroundOutline=1;size=15;" parent="1" vertex="1">
          <mxGeometry x="262.5" y="490" width="60" height="80" as="geometry" />
        </mxCell>
        <mxCell id="6d7RA7EBXeTtU1A4HqyG-6" value="campagne" style="ellipse;whiteSpace=wrap;html=1;" parent="1" vertex="1">
          <mxGeometry x="110" y="880" width="120" height="53.75" as="geometry" />
        </mxCell>
        <mxCell id="6d7RA7EBXeTtU1A4HqyG-10" value="objet" style="ellipse;whiteSpace=wrap;html=1;" parent="1" vertex="1">
          <mxGeometry x="280" y="910" width="94" height="30" as="geometry" />
        </mxCell>
        <mxCell id="6d7RA7EBXeTtU1A4HqyG-11" value="vote" style="ellipse;whiteSpace=wrap;html=1;" parent="1" vertex="1">
          <mxGeometry x="502" y="740" width="94" height="60" as="geometry" />
        </mxCell>
        <mxCell id="6d7RA7EBXeTtU1A4HqyG-12" value="vote" style="ellipse;whiteSpace=wrap;html=1;" parent="1" vertex="1">
          <mxGeometry x="506" y="800" width="94" height="60" as="geometry" />
        </mxCell>
        <mxCell id="6d7RA7EBXeTtU1A4HqyG-13" value="vote" style="ellipse;whiteSpace=wrap;html=1;" parent="1" vertex="1">
          <mxGeometry x="506" y="860" width="94" height="60" as="geometry" />
        </mxCell>
        <mxCell id="6d7RA7EBXeTtU1A4HqyG-14" value="vote" style="ellipse;whiteSpace=wrap;html=1;" parent="1" vertex="1">
          <mxGeometry x="506" y="920" width="94" height="60" as="geometry" />
        </mxCell>
        <mxCell id="6d7RA7EBXeTtU1A4HqyG-15" value="vote" style="ellipse;whiteSpace=wrap;html=1;" parent="1" vertex="1">
          <mxGeometry x="506" y="980" width="94" height="60" as="geometry" />
        </mxCell>
        <mxCell id="6d7RA7EBXeTtU1A4HqyG-16" value="&lt;h1&gt;Rest API&lt;/h1&gt;&lt;p&gt;&lt;span style=&quot;background-color: initial;&quot;&gt;POST /campaign/{id}/object/{id}/vote&lt;br&gt;&lt;/span&gt;GET /campaign/{id}/object/{id}&lt;/p&gt;&lt;p&gt;&lt;br&gt;&lt;/p&gt;" style="text;html=1;strokeColor=none;fillColor=none;spacing=5;spacingTop=-20;whiteSpace=wrap;overflow=hidden;rounded=0;" parent="1" vertex="1">
          <mxGeometry x="55" y="260" width="210" height="120" as="geometry" />
        </mxCell>
        <mxCell id="6d7RA7EBXeTtU1A4HqyG-17" value="" style="shape=cylinder3;whiteSpace=wrap;html=1;boundedLbl=1;backgroundOutline=1;size=15;rotation=90;" parent="1" vertex="1">
          <mxGeometry x="398.75" y="388.75" width="27.5" height="457.5" as="geometry" />
        </mxCell>
        <mxCell id="6d7RA7EBXeTtU1A4HqyG-18" value="" style="endArrow=classic;html=1;rounded=0;exitX=0.625;exitY=1;exitDx=0;exitDy=0;entryX=0;entryY=1;entryDx=0;entryDy=-15;entryPerimeter=0;" parent="1" source="6d7RA7EBXeTtU1A4HqyG-1" target="6d7RA7EBXeTtU1A4HqyG-17" edge="1">
          <mxGeometry width="50" height="50" relative="1" as="geometry">
            <mxPoint x="340" y="610" as="sourcePoint" />
            <mxPoint x="229" y="600" as="targetPoint" />
          </mxGeometry>
        </mxCell>
        <mxCell id="6d7RA7EBXeTtU1A4HqyG-19" value="" style="endArrow=classic;html=1;rounded=0;" parent="1" source="6d7RA7EBXeTtU1A4HqyG-17" target="6d7RA7EBXeTtU1A4HqyG-3" edge="1">
          <mxGeometry width="50" height="50" relative="1" as="geometry">
            <mxPoint x="500" y="600" as="sourcePoint" />
            <mxPoint x="320" y="560" as="targetPoint" />
          </mxGeometry>
        </mxCell>
        <mxCell id="6d7RA7EBXeTtU1A4HqyG-20" value="" style="endArrow=classic;html=1;rounded=0;entryX=0.5;entryY=1;entryDx=0;entryDy=0;exitX=0.009;exitY=0.11;exitDx=0;exitDy=0;exitPerimeter=0;" parent="1" source="6d7RA7EBXeTtU1A4HqyG-17" target="6d7RA7EBXeTtU1A4HqyG-4" edge="1">
          <mxGeometry width="50" height="50" relative="1" as="geometry">
            <mxPoint x="250" y="610" as="sourcePoint" />
            <mxPoint x="300" y="560" as="targetPoint" />
          </mxGeometry>
        </mxCell>
        <mxCell id="6d7RA7EBXeTtU1A4HqyG-21" value="PENDING" style="ellipse;whiteSpace=wrap;html=1;" parent="1" vertex="1">
          <mxGeometry x="26" y="1020" width="94" height="60" as="geometry" />
        </mxCell>
        <mxCell id="6d7RA7EBXeTtU1A4HqyG-22" value="OPEN" style="ellipse;whiteSpace=wrap;html=1;" parent="1" vertex="1">
          <mxGeometry x="172.5" y="1020" width="94" height="60" as="geometry" />
        </mxCell>
        <mxCell id="6d7RA7EBXeTtU1A4HqyG-23" value="CLOSED" style="ellipse;whiteSpace=wrap;html=1;" parent="1" vertex="1">
          <mxGeometry x="324" y="1020" width="94" height="60" as="geometry" />
        </mxCell>
        <mxCell id="Wwq2GrCyzlOyqkV0D2K5-1" value="objet" style="ellipse;whiteSpace=wrap;html=1;" parent="1" vertex="1">
          <mxGeometry x="280" y="880" width="94" height="30" as="geometry" />
        </mxCell>
        <mxCell id="Wwq2GrCyzlOyqkV0D2K5-2" value="objet" style="ellipse;whiteSpace=wrap;html=1;" parent="1" vertex="1">
          <mxGeometry x="270" y="850" width="94" height="30" as="geometry" />
        </mxCell>
        <mxCell id="Wwq2GrCyzlOyqkV0D2K5-3" value="objet" style="ellipse;whiteSpace=wrap;html=1;" parent="1" vertex="1">
          <mxGeometry x="270" y="940" width="94" height="30" as="geometry" />
        </mxCell>
      </root>
    </mxGraphModel>
  </diagram>
  <diagram id="eorsUD-LDszYpwrviJl4" name="Page-2">
    <mxGraphModel dx="1152" dy="874" grid="0" gridSize="10" guides="1" tooltips="1" connect="1" arrows="1" fold="1" page="1" pageScale="1" pageWidth="827" pageHeight="1169" math="0" shadow="0">
      <root>
        <mxCell id="0" />
        <mxCell id="1" parent="0" />
        <mxCell id="vTHER4IsNHcq7hxchsJE-10" value="" style="rounded=0;whiteSpace=wrap;html=1;fontFamily=Comic Sans MS;" parent="1" vertex="1">
          <mxGeometry x="310" y="190" width="480" height="860" as="geometry" />
        </mxCell>
        <mxCell id="vTHER4IsNHcq7hxchsJE-1" value="Votant" style="shape=umlActor;verticalLabelPosition=bottom;verticalAlign=top;html=1;outlineConnect=0;fontFamily=Comic Sans MS;fontStyle=1" parent="1" vertex="1">
          <mxGeometry x="100" y="260" width="30" height="60" as="geometry" />
        </mxCell>
        <mxCell id="vTHER4IsNHcq7hxchsJE-4" value="" style="endArrow=classic;html=1;rounded=0;entryX=0;entryY=0.5;entryDx=0;entryDy=0;fontFamily=Comic Sans MS;" parent="1" target="vTHER4IsNHcq7hxchsJE-3" edge="1">
          <mxGeometry width="50" height="50" relative="1" as="geometry">
            <mxPoint x="170" y="300" as="sourcePoint" />
            <mxPoint x="440" y="730" as="targetPoint" />
          </mxGeometry>
        </mxCell>
        <mxCell id="vTHER4IsNHcq7hxchsJE-6" value="" style="endArrow=classic;html=1;rounded=0;entryX=0;entryY=0.5;entryDx=0;entryDy=0;fontFamily=Comic Sans MS;" parent="1" target="vTHER4IsNHcq7hxchsJE-5" edge="1">
          <mxGeometry width="50" height="50" relative="1" as="geometry">
            <mxPoint x="170" y="300" as="sourcePoint" />
            <mxPoint x="460" y="730" as="targetPoint" />
          </mxGeometry>
        </mxCell>
        <mxCell id="vTHER4IsNHcq7hxchsJE-3" value="Demande une autorisationDto de vote" style="ellipse;whiteSpace=wrap;html=1;fontFamily=Comic Sans MS;" parent="1" vertex="1">
          <mxGeometry x="380" y="260" width="120" height="80" as="geometry" />
        </mxCell>
        <mxCell id="vTHER4IsNHcq7hxchsJE-7" value="" style="endArrow=classic;html=1;rounded=0;entryX=0.5;entryY=1;entryDx=0;entryDy=0;exitX=0.5;exitY=0;exitDx=0;exitDy=0;dashed=1;dashPattern=8 8;fontFamily=Comic Sans MS;" parent="1" source="vTHER4IsNHcq7hxchsJE-5" target="vTHER4IsNHcq7hxchsJE-3" edge="1">
          <mxGeometry width="50" height="50" relative="1" as="geometry">
            <mxPoint x="460" y="890" as="sourcePoint" />
            <mxPoint x="510" y="840" as="targetPoint" />
          </mxGeometry>
        </mxCell>
        <mxCell id="vTHER4IsNHcq7hxchsJE-5" value="Voter pour une campagne" style="ellipse;whiteSpace=wrap;html=1;fontFamily=Comic Sans MS;" parent="1" vertex="1">
          <mxGeometry x="380" y="420" width="120" height="80" as="geometry" />
        </mxCell>
        <mxCell id="vTHER4IsNHcq7hxchsJE-11" value="Gestionnaire de campagne" style="shape=umlActor;verticalLabelPosition=bottom;verticalAlign=top;html=1;outlineConnect=0;fontFamily=Comic Sans MS;fontStyle=1" parent="1" vertex="1">
          <mxGeometry x="100" y="645" width="30" height="60" as="geometry" />
        </mxCell>
        <mxCell id="vTHER4IsNHcq7hxchsJE-13" value="Créer une campagne" style="ellipse;whiteSpace=wrap;html=1;fontFamily=Comic Sans MS;" parent="1" vertex="1">
          <mxGeometry x="330" y="645" width="206" height="80" as="geometry" />
        </mxCell>
        <mxCell id="vTHER4IsNHcq7hxchsJE-14" value="Modifier/Démarrer/Stopper une campage" style="ellipse;whiteSpace=wrap;html=1;fontFamily=Comic Sans MS;" parent="1" vertex="1">
          <mxGeometry x="440" y="750" width="206" height="80" as="geometry" />
        </mxCell>
        <mxCell id="vTHER4IsNHcq7hxchsJE-15" value="" style="endArrow=classic;html=1;rounded=0;entryX=0;entryY=0.5;entryDx=0;entryDy=0;fontFamily=Comic Sans MS;" parent="1" target="vTHER4IsNHcq7hxchsJE-13" edge="1">
          <mxGeometry width="50" height="50" relative="1" as="geometry">
            <mxPoint x="180" y="690" as="sourcePoint" />
            <mxPoint x="420" y="710" as="targetPoint" />
          </mxGeometry>
        </mxCell>
        <mxCell id="vTHER4IsNHcq7hxchsJE-16" value="" style="endArrow=classic;html=1;rounded=0;entryX=0.005;entryY=0.388;entryDx=0;entryDy=0;entryPerimeter=0;fontFamily=Comic Sans MS;" parent="1" target="vTHER4IsNHcq7hxchsJE-14" edge="1">
          <mxGeometry width="50" height="50" relative="1" as="geometry">
            <mxPoint x="180" y="690" as="sourcePoint" />
            <mxPoint x="300" y="710" as="targetPoint" />
          </mxGeometry>
        </mxCell>
        <mxCell id="vTHER4IsNHcq7hxchsJE-17" value="Ajouter des objets à une campagne" style="ellipse;whiteSpace=wrap;html=1;fontFamily=Comic Sans MS;" parent="1" vertex="1">
          <mxGeometry x="360" y="860" width="206" height="80" as="geometry" />
        </mxCell>
        <mxCell id="vTHER4IsNHcq7hxchsJE-18" value="Valider/Refuser une autorisation de vote" style="ellipse;whiteSpace=wrap;html=1;fontFamily=Comic Sans MS;" parent="1" vertex="1">
          <mxGeometry x="556" y="565" width="206" height="80" as="geometry" />
        </mxCell>
        <mxCell id="vTHER4IsNHcq7hxchsJE-19" value="" style="endArrow=classic;html=1;rounded=0;entryX=0.5;entryY=0;entryDx=0;entryDy=0;exitX=1;exitY=1;exitDx=0;exitDy=0;dashed=1;dashPattern=8 8;fontFamily=Comic Sans MS;" parent="1" source="vTHER4IsNHcq7hxchsJE-3" target="vTHER4IsNHcq7hxchsJE-18" edge="1">
          <mxGeometry width="50" height="50" relative="1" as="geometry">
            <mxPoint x="450" y="430" as="sourcePoint" />
            <mxPoint x="450" y="350" as="targetPoint" />
          </mxGeometry>
        </mxCell>
        <mxCell id="vTHER4IsNHcq7hxchsJE-20" value="" style="endArrow=classic;html=1;rounded=0;entryX=0;entryY=0.5;entryDx=0;entryDy=0;fontFamily=Comic Sans MS;" parent="1" target="vTHER4IsNHcq7hxchsJE-17" edge="1">
          <mxGeometry width="50" height="50" relative="1" as="geometry">
            <mxPoint x="180" y="690" as="sourcePoint" />
            <mxPoint x="110" y="670" as="targetPoint" />
          </mxGeometry>
        </mxCell>
        <mxCell id="vTHER4IsNHcq7hxchsJE-21" value="" style="endArrow=classic;html=1;rounded=0;entryX=1;entryY=0;entryDx=0;entryDy=0;exitX=1;exitY=1;exitDx=0;exitDy=0;dashed=1;dashPattern=8 8;fontFamily=Comic Sans MS;" parent="1" source="vTHER4IsNHcq7hxchsJE-5" target="vTHER4IsNHcq7hxchsJE-14" edge="1">
          <mxGeometry width="50" height="50" relative="1" as="geometry">
            <mxPoint x="40" y="730" as="sourcePoint" />
            <mxPoint x="90" y="680" as="targetPoint" />
          </mxGeometry>
        </mxCell>
        <mxCell id="BeDkReBGD84sfCVMEjXH-1" value="&lt;h1&gt;&lt;span style=&quot;background-color: initial;&quot;&gt;Voting APP - Cas d&#39;utilisations&lt;br&gt;&lt;/span&gt;&lt;span style=&quot;font-size: 12px; font-weight: 400;&quot;&gt;Digramme USE CASE du projet VotingAPP&lt;/span&gt;&lt;/h1&gt;&lt;p&gt;&lt;br&gt;&lt;/p&gt;" style="text;html=1;strokeColor=none;fillColor=none;spacing=5;spacingTop=-20;whiteSpace=wrap;overflow=hidden;rounded=0;fontFamily=Comic Sans MS;" parent="1" vertex="1">
          <mxGeometry x="10" y="20" width="520" height="120" as="geometry" />
        </mxCell>
      </root>
    </mxGraphModel>
  </diagram>
  <diagram name="Copie de Page-2" id="RuqqYH3me5lDtDGBivgb">
    <mxGraphModel dx="979" dy="743" grid="1" gridSize="10" guides="1" tooltips="1" connect="1" arrows="1" fold="1" page="1" pageScale="1" pageWidth="827" pageHeight="1169" math="0" shadow="0">
      <root>
        <mxCell id="YZHuKe3IQT8OoPDCED9f-0" />
        <mxCell id="YZHuKe3IQT8OoPDCED9f-1" parent="YZHuKe3IQT8OoPDCED9f-0" />
        <mxCell id="cYjT16HvaFi7w7iUG4rs-22" value="Bus de communication" style="shape=cylinder3;whiteSpace=wrap;html=1;boundedLbl=1;backgroundOutline=1;size=15;fontFamily=Comic Sans MS;rotation=90;horizontal=0;verticalAlign=top;fontStyle=1;fillColor=#f8cecc;strokeColor=#b85450;" parent="YZHuKe3IQT8OoPDCED9f-1" vertex="1">
          <mxGeometry x="425.63" y="166.88" width="126.25" height="540" as="geometry" />
        </mxCell>
        <mxCell id="YZHuKe3IQT8OoPDCED9f-2" value="" style="rounded=0;whiteSpace=wrap;html=1;fontFamily=Comic Sans MS;" parent="YZHuKe3IQT8OoPDCED9f-1" vertex="1">
          <mxGeometry x="1640" y="210" width="480" height="860" as="geometry" />
        </mxCell>
        <mxCell id="YZHuKe3IQT8OoPDCED9f-3" value="Votant" style="shape=umlActor;verticalLabelPosition=bottom;verticalAlign=top;html=1;outlineConnect=0;fontFamily=Comic Sans MS;fontStyle=1" parent="YZHuKe3IQT8OoPDCED9f-1" vertex="1">
          <mxGeometry x="1430" y="280" width="30" height="60" as="geometry" />
        </mxCell>
        <mxCell id="YZHuKe3IQT8OoPDCED9f-4" value="" style="endArrow=classic;html=1;rounded=0;entryX=0;entryY=0.5;entryDx=0;entryDy=0;fontFamily=Comic Sans MS;" parent="YZHuKe3IQT8OoPDCED9f-1" target="YZHuKe3IQT8OoPDCED9f-6" edge="1">
          <mxGeometry width="50" height="50" relative="1" as="geometry">
            <mxPoint x="1500" y="320" as="sourcePoint" />
            <mxPoint x="1770" y="750" as="targetPoint" />
          </mxGeometry>
        </mxCell>
        <mxCell id="YZHuKe3IQT8OoPDCED9f-5" value="" style="endArrow=classic;html=1;rounded=0;entryX=0;entryY=0.5;entryDx=0;entryDy=0;fontFamily=Comic Sans MS;" parent="YZHuKe3IQT8OoPDCED9f-1" target="YZHuKe3IQT8OoPDCED9f-8" edge="1">
          <mxGeometry width="50" height="50" relative="1" as="geometry">
            <mxPoint x="1500" y="320" as="sourcePoint" />
            <mxPoint x="1790" y="750" as="targetPoint" />
          </mxGeometry>
        </mxCell>
        <mxCell id="YZHuKe3IQT8OoPDCED9f-6" value="Demande une autorisationDto de vote" style="ellipse;whiteSpace=wrap;html=1;fontFamily=Comic Sans MS;" parent="YZHuKe3IQT8OoPDCED9f-1" vertex="1">
          <mxGeometry x="1710" y="310" width="120" height="80" as="geometry" />
        </mxCell>
        <mxCell id="YZHuKe3IQT8OoPDCED9f-7" value="" style="endArrow=classic;html=1;rounded=0;entryX=0.5;entryY=1;entryDx=0;entryDy=0;exitX=0.5;exitY=0;exitDx=0;exitDy=0;dashed=1;dashPattern=8 8;fontFamily=Comic Sans MS;" parent="YZHuKe3IQT8OoPDCED9f-1" source="YZHuKe3IQT8OoPDCED9f-8" target="YZHuKe3IQT8OoPDCED9f-6" edge="1">
          <mxGeometry width="50" height="50" relative="1" as="geometry">
            <mxPoint x="1790" y="910" as="sourcePoint" />
            <mxPoint x="1840" y="860" as="targetPoint" />
          </mxGeometry>
        </mxCell>
        <mxCell id="YZHuKe3IQT8OoPDCED9f-8" value="Peut voter pour une campagne" style="ellipse;whiteSpace=wrap;html=1;fontFamily=Comic Sans MS;" parent="YZHuKe3IQT8OoPDCED9f-1" vertex="1">
          <mxGeometry x="1710" y="420" width="120" height="80" as="geometry" />
        </mxCell>
        <mxCell id="YZHuKe3IQT8OoPDCED9f-9" value="Gestionnaire de campagne" style="shape=umlActor;verticalLabelPosition=bottom;verticalAlign=top;html=1;outlineConnect=0;fontFamily=Comic Sans MS;fontStyle=1" parent="YZHuKe3IQT8OoPDCED9f-1" vertex="1">
          <mxGeometry x="1430" y="665" width="30" height="60" as="geometry" />
        </mxCell>
        <mxCell id="YZHuKe3IQT8OoPDCED9f-10" value="Créer une campagne" style="ellipse;whiteSpace=wrap;html=1;fontFamily=Comic Sans MS;" parent="YZHuKe3IQT8OoPDCED9f-1" vertex="1">
          <mxGeometry x="1660" y="665" width="206" height="80" as="geometry" />
        </mxCell>
        <mxCell id="YZHuKe3IQT8OoPDCED9f-11" value="Modifier/Démarrer/Stopper une campage" style="ellipse;whiteSpace=wrap;html=1;fontFamily=Comic Sans MS;" parent="YZHuKe3IQT8OoPDCED9f-1" vertex="1">
          <mxGeometry x="1770" y="770" width="206" height="80" as="geometry" />
        </mxCell>
        <mxCell id="YZHuKe3IQT8OoPDCED9f-12" value="" style="endArrow=classic;html=1;rounded=0;entryX=0;entryY=0.5;entryDx=0;entryDy=0;fontFamily=Comic Sans MS;" parent="YZHuKe3IQT8OoPDCED9f-1" target="YZHuKe3IQT8OoPDCED9f-10" edge="1">
          <mxGeometry width="50" height="50" relative="1" as="geometry">
            <mxPoint x="1510" y="710" as="sourcePoint" />
            <mxPoint x="1750" y="730" as="targetPoint" />
          </mxGeometry>
        </mxCell>
        <mxCell id="YZHuKe3IQT8OoPDCED9f-13" value="" style="endArrow=classic;html=1;rounded=0;entryX=0.005;entryY=0.388;entryDx=0;entryDy=0;entryPerimeter=0;fontFamily=Comic Sans MS;" parent="YZHuKe3IQT8OoPDCED9f-1" target="YZHuKe3IQT8OoPDCED9f-11" edge="1">
          <mxGeometry width="50" height="50" relative="1" as="geometry">
            <mxPoint x="1510" y="710" as="sourcePoint" />
            <mxPoint x="1630" y="730" as="targetPoint" />
          </mxGeometry>
        </mxCell>
        <mxCell id="YZHuKe3IQT8OoPDCED9f-14" value="Ajouter des objets à une campagne" style="ellipse;whiteSpace=wrap;html=1;fontFamily=Comic Sans MS;" parent="YZHuKe3IQT8OoPDCED9f-1" vertex="1">
          <mxGeometry x="1690" y="880" width="206" height="80" as="geometry" />
        </mxCell>
        <mxCell id="YZHuKe3IQT8OoPDCED9f-15" value="Valider/Refuser une autorisationDto de vote" style="ellipse;whiteSpace=wrap;html=1;fontFamily=Comic Sans MS;" parent="YZHuKe3IQT8OoPDCED9f-1" vertex="1">
          <mxGeometry x="1886" y="585" width="206" height="80" as="geometry" />
        </mxCell>
        <mxCell id="YZHuKe3IQT8OoPDCED9f-16" value="" style="endArrow=classic;html=1;rounded=0;entryX=0.5;entryY=0;entryDx=0;entryDy=0;exitX=1;exitY=1;exitDx=0;exitDy=0;dashed=1;dashPattern=8 8;fontFamily=Comic Sans MS;" parent="YZHuKe3IQT8OoPDCED9f-1" source="YZHuKe3IQT8OoPDCED9f-6" target="YZHuKe3IQT8OoPDCED9f-15" edge="1">
          <mxGeometry width="50" height="50" relative="1" as="geometry">
            <mxPoint x="1780" y="450" as="sourcePoint" />
            <mxPoint x="1780" y="370" as="targetPoint" />
          </mxGeometry>
        </mxCell>
        <mxCell id="YZHuKe3IQT8OoPDCED9f-17" value="" style="endArrow=classic;html=1;rounded=0;entryX=0;entryY=0.5;entryDx=0;entryDy=0;fontFamily=Comic Sans MS;" parent="YZHuKe3IQT8OoPDCED9f-1" target="YZHuKe3IQT8OoPDCED9f-14" edge="1">
          <mxGeometry width="50" height="50" relative="1" as="geometry">
            <mxPoint x="1510" y="710" as="sourcePoint" />
            <mxPoint x="1440" y="690" as="targetPoint" />
          </mxGeometry>
        </mxCell>
        <mxCell id="YZHuKe3IQT8OoPDCED9f-18" value="" style="endArrow=classic;html=1;rounded=0;entryX=1;entryY=0;entryDx=0;entryDy=0;exitX=1;exitY=1;exitDx=0;exitDy=0;dashed=1;dashPattern=8 8;fontFamily=Comic Sans MS;" parent="YZHuKe3IQT8OoPDCED9f-1" source="YZHuKe3IQT8OoPDCED9f-8" target="YZHuKe3IQT8OoPDCED9f-11" edge="1">
          <mxGeometry width="50" height="50" relative="1" as="geometry">
            <mxPoint x="1370" y="750" as="sourcePoint" />
            <mxPoint x="1420" y="700" as="targetPoint" />
          </mxGeometry>
        </mxCell>
        <mxCell id="YZHuKe3IQT8OoPDCED9f-19" value="&lt;h1&gt;&lt;span style=&quot;background-color: initial;&quot;&gt;Voting APP - Cas d&#39;utilisations&lt;br&gt;&lt;/span&gt;&lt;span style=&quot;font-size: 12px; font-weight: 400;&quot;&gt;Digramme USE CASE du projet VotingAPP&lt;/span&gt;&lt;/h1&gt;&lt;p&gt;&lt;br&gt;&lt;/p&gt;" style="text;html=1;strokeColor=none;fillColor=none;spacing=5;spacingTop=-20;whiteSpace=wrap;overflow=hidden;rounded=0;fontFamily=Comic Sans MS;" parent="YZHuKe3IQT8OoPDCED9f-1" vertex="1">
          <mxGeometry x="10" y="20" width="520" height="120" as="geometry" />
        </mxCell>
        <mxCell id="XhRRTtLeAesrSx6MJ_7h-0" value="&lt;font style=&quot;&quot;&gt;&lt;span style=&quot;font-size: 15px;&quot;&gt;admin-service&lt;/span&gt;&lt;br&gt;&lt;font style=&quot;font-size: 11px; font-weight: normal;&quot;&gt;&lt;br&gt;Service d&#39;administration &lt;br&gt;des campagnes de votes.&amp;nbsp;&lt;br&gt;&lt;/font&gt;&lt;span style=&quot;font-weight: normal;&quot;&gt;Source de vérité unique pour les données de vote.&lt;/span&gt;&lt;br&gt;&lt;/font&gt;" style="shape=hexagon;perimeter=hexagonPerimeter2;whiteSpace=wrap;html=1;fixedSize=1;fontStyle=1;fontFamily=Comic Sans MS;verticalAlign=top;" parent="YZHuKe3IQT8OoPDCED9f-1" vertex="1">
          <mxGeometry x="740" y="277.5" width="160" height="160" as="geometry" />
        </mxCell>
        <mxCell id="XhRRTtLeAesrSx6MJ_7h-1" value="Base de données relationelle" style="shape=cylinder3;whiteSpace=wrap;html=1;boundedLbl=1;backgroundOutline=1;size=15;fontFamily=Comic Sans MS;" parent="YZHuKe3IQT8OoPDCED9f-1" vertex="1">
          <mxGeometry x="775" y="572.5" width="90" height="100" as="geometry" />
        </mxCell>
        <mxCell id="XhRRTtLeAesrSx6MJ_7h-2" value="" style="endArrow=classic;startArrow=classic;html=1;rounded=0;entryX=0.5;entryY=1;entryDx=0;entryDy=0;exitX=0.5;exitY=0;exitDx=0;exitDy=0;exitPerimeter=0;fontFamily=Comic Sans MS;" parent="YZHuKe3IQT8OoPDCED9f-1" source="XhRRTtLeAesrSx6MJ_7h-1" target="XhRRTtLeAesrSx6MJ_7h-0" edge="1">
          <mxGeometry width="50" height="50" relative="1" as="geometry">
            <mxPoint x="1250" y="777.5" as="sourcePoint" />
            <mxPoint x="1300" y="727.5" as="targetPoint" />
          </mxGeometry>
        </mxCell>
        <mxCell id="XhRRTtLeAesrSx6MJ_7h-3" value="&lt;font style=&quot;&quot;&gt;&lt;span style=&quot;font-size: 15px;&quot;&gt;voting-service&lt;/span&gt;&lt;br&gt;&lt;font style=&quot;font-size: 11px; font-weight: normal;&quot;&gt;&lt;br&gt;&lt;/font&gt;&lt;span style=&quot;font-weight: normal;&quot;&gt;Service publique permettant a une personne de voter.&lt;/span&gt;&lt;br&gt;&lt;/font&gt;" style="shape=hexagon;perimeter=hexagonPerimeter2;whiteSpace=wrap;html=1;fixedSize=1;fontStyle=1;fontFamily=Comic Sans MS;verticalAlign=top;" parent="YZHuKe3IQT8OoPDCED9f-1" vertex="1">
          <mxGeometry x="75" y="280" width="160" height="160" as="geometry" />
        </mxCell>
        <mxCell id="XhRRTtLeAesrSx6MJ_7h-4" value="Base de d" style="shape=cylinder3;whiteSpace=wrap;html=1;boundedLbl=1;backgroundOutline=1;size=15;fontFamily=Comic Sans MS;" parent="YZHuKe3IQT8OoPDCED9f-1" vertex="1">
          <mxGeometry x="110" y="575" width="90" height="100" as="geometry" />
        </mxCell>
        <mxCell id="XhRRTtLeAesrSx6MJ_7h-5" value="" style="endArrow=classic;startArrow=classic;html=1;rounded=0;entryX=0.5;entryY=1;entryDx=0;entryDy=0;exitX=0.5;exitY=0;exitDx=0;exitDy=0;exitPerimeter=0;fontFamily=Comic Sans MS;" parent="YZHuKe3IQT8OoPDCED9f-1" source="XhRRTtLeAesrSx6MJ_7h-4" target="XhRRTtLeAesrSx6MJ_7h-3" edge="1">
          <mxGeometry width="50" height="50" relative="1" as="geometry">
            <mxPoint x="585" y="780" as="sourcePoint" />
            <mxPoint x="635" y="730" as="targetPoint" />
          </mxGeometry>
        </mxCell>
        <mxCell id="MtVX61lOfcsx6lrr_SQc-0" value="campagne" style="ellipse;whiteSpace=wrap;html=1;" parent="YZHuKe3IQT8OoPDCED9f-1" vertex="1">
          <mxGeometry x="230" y="910" width="120" height="53.75" as="geometry" />
        </mxCell>
        <mxCell id="MtVX61lOfcsx6lrr_SQc-1" value="objet" style="ellipse;whiteSpace=wrap;html=1;" parent="YZHuKe3IQT8OoPDCED9f-1" vertex="1">
          <mxGeometry x="430" y="940" width="94" height="30" as="geometry" />
        </mxCell>
        <mxCell id="MtVX61lOfcsx6lrr_SQc-2" value="objet" style="ellipse;whiteSpace=wrap;html=1;" parent="YZHuKe3IQT8OoPDCED9f-1" vertex="1">
          <mxGeometry x="430" y="910" width="94" height="30" as="geometry" />
        </mxCell>
        <mxCell id="MtVX61lOfcsx6lrr_SQc-3" value="objet" style="ellipse;whiteSpace=wrap;html=1;" parent="YZHuKe3IQT8OoPDCED9f-1" vertex="1">
          <mxGeometry x="420" y="880" width="94" height="30" as="geometry" />
        </mxCell>
        <mxCell id="MtVX61lOfcsx6lrr_SQc-4" value="objet" style="ellipse;whiteSpace=wrap;html=1;" parent="YZHuKe3IQT8OoPDCED9f-1" vertex="1">
          <mxGeometry x="420" y="970" width="94" height="30" as="geometry" />
        </mxCell>
        <mxCell id="MtVX61lOfcsx6lrr_SQc-5" value="" style="endArrow=none;html=1;rounded=0;exitX=1;exitY=0.5;exitDx=0;exitDy=0;entryX=0;entryY=0.5;entryDx=0;entryDy=0;" parent="YZHuKe3IQT8OoPDCED9f-1" source="MtVX61lOfcsx6lrr_SQc-0" target="MtVX61lOfcsx6lrr_SQc-3" edge="1">
          <mxGeometry width="50" height="50" relative="1" as="geometry">
            <mxPoint x="710" y="690" as="sourcePoint" />
            <mxPoint x="760" y="640" as="targetPoint" />
          </mxGeometry>
        </mxCell>
        <mxCell id="MtVX61lOfcsx6lrr_SQc-6" value="" style="endArrow=none;html=1;rounded=0;exitX=1;exitY=0.5;exitDx=0;exitDy=0;entryX=0;entryY=0.5;entryDx=0;entryDy=0;" parent="YZHuKe3IQT8OoPDCED9f-1" source="MtVX61lOfcsx6lrr_SQc-0" target="MtVX61lOfcsx6lrr_SQc-2" edge="1">
          <mxGeometry width="50" height="50" relative="1" as="geometry">
            <mxPoint x="390" y="947" as="sourcePoint" />
            <mxPoint x="430" y="905" as="targetPoint" />
          </mxGeometry>
        </mxCell>
        <mxCell id="MtVX61lOfcsx6lrr_SQc-7" value="" style="endArrow=none;html=1;rounded=0;entryX=0;entryY=0.5;entryDx=0;entryDy=0;exitX=1;exitY=0.5;exitDx=0;exitDy=0;" parent="YZHuKe3IQT8OoPDCED9f-1" source="MtVX61lOfcsx6lrr_SQc-0" target="MtVX61lOfcsx6lrr_SQc-1" edge="1">
          <mxGeometry width="50" height="50" relative="1" as="geometry">
            <mxPoint x="380" y="935" as="sourcePoint" />
            <mxPoint x="440" y="935" as="targetPoint" />
          </mxGeometry>
        </mxCell>
        <mxCell id="MtVX61lOfcsx6lrr_SQc-8" value="" style="endArrow=none;html=1;rounded=0;exitX=1;exitY=0.5;exitDx=0;exitDy=0;entryX=0;entryY=0.5;entryDx=0;entryDy=0;" parent="YZHuKe3IQT8OoPDCED9f-1" source="MtVX61lOfcsx6lrr_SQc-0" target="MtVX61lOfcsx6lrr_SQc-4" edge="1">
          <mxGeometry width="50" height="50" relative="1" as="geometry">
            <mxPoint x="400" y="957" as="sourcePoint" />
            <mxPoint x="450" y="945" as="targetPoint" />
          </mxGeometry>
        </mxCell>
        <mxCell id="cYjT16HvaFi7w7iUG4rs-0" value="vote" style="ellipse;whiteSpace=wrap;html=1;" parent="YZHuKe3IQT8OoPDCED9f-1" vertex="1">
          <mxGeometry x="540" y="890" width="94" height="30" as="geometry" />
        </mxCell>
        <mxCell id="cYjT16HvaFi7w7iUG4rs-1" value="" style="endArrow=none;html=1;rounded=0;entryX=0;entryY=0.5;entryDx=0;entryDy=0;exitX=1;exitY=0.5;exitDx=0;exitDy=0;" parent="YZHuKe3IQT8OoPDCED9f-1" source="MtVX61lOfcsx6lrr_SQc-3" target="cYjT16HvaFi7w7iUG4rs-0" edge="1">
          <mxGeometry width="50" height="50" relative="1" as="geometry">
            <mxPoint x="410" y="780" as="sourcePoint" />
            <mxPoint x="460" y="730" as="targetPoint" />
          </mxGeometry>
        </mxCell>
        <mxCell id="cYjT16HvaFi7w7iUG4rs-3" value="votant" style="ellipse;whiteSpace=wrap;html=1;" parent="YZHuKe3IQT8OoPDCED9f-1" vertex="1">
          <mxGeometry x="660" y="890" width="94" height="30" as="geometry" />
        </mxCell>
        <mxCell id="cYjT16HvaFi7w7iUG4rs-4" value="" style="endArrow=none;html=1;rounded=0;entryX=0;entryY=0.5;entryDx=0;entryDy=0;exitX=1;exitY=0.5;exitDx=0;exitDy=0;" parent="YZHuKe3IQT8OoPDCED9f-1" source="cYjT16HvaFi7w7iUG4rs-0" target="cYjT16HvaFi7w7iUG4rs-3" edge="1">
          <mxGeometry width="50" height="50" relative="1" as="geometry">
            <mxPoint x="380" y="800" as="sourcePoint" />
            <mxPoint x="430" y="750" as="targetPoint" />
          </mxGeometry>
        </mxCell>
        <mxCell id="cYjT16HvaFi7w7iUG4rs-6" value="autorisationDto" style="ellipse;whiteSpace=wrap;html=1;" parent="YZHuKe3IQT8OoPDCED9f-1" vertex="1">
          <mxGeometry x="330" y="1110" width="120" height="30" as="geometry" />
        </mxCell>
        <mxCell id="cYjT16HvaFi7w7iUG4rs-8" value="" style="endArrow=none;html=1;rounded=0;exitX=1;exitY=0.5;exitDx=0;exitDy=0;" parent="YZHuKe3IQT8OoPDCED9f-1" source="cYjT16HvaFi7w7iUG4rs-6" target="cYjT16HvaFi7w7iUG4rs-3" edge="1">
          <mxGeometry width="50" height="50" relative="1" as="geometry">
            <mxPoint x="310" y="890" as="sourcePoint" />
            <mxPoint x="360" y="840" as="targetPoint" />
          </mxGeometry>
        </mxCell>
        <mxCell id="cYjT16HvaFi7w7iUG4rs-9" value="demande" style="ellipse;whiteSpace=wrap;html=1;" parent="YZHuKe3IQT8OoPDCED9f-1" vertex="1">
          <mxGeometry x="60" y="1070" width="120" height="30" as="geometry" />
        </mxCell>
        <mxCell id="cYjT16HvaFi7w7iUG4rs-10" value="" style="endArrow=none;html=1;rounded=0;exitX=0.5;exitY=1;exitDx=0;exitDy=0;entryX=0;entryY=0.5;entryDx=0;entryDy=0;" parent="YZHuKe3IQT8OoPDCED9f-1" source="cYjT16HvaFi7w7iUG4rs-9" target="cYjT16HvaFi7w7iUG4rs-6" edge="1">
          <mxGeometry width="50" height="50" relative="1" as="geometry">
            <mxPoint x="280" y="890" as="sourcePoint" />
            <mxPoint x="330" y="840" as="targetPoint" />
          </mxGeometry>
        </mxCell>
        <mxCell id="cYjT16HvaFi7w7iUG4rs-12" value="personne" style="ellipse;whiteSpace=wrap;html=1;" parent="YZHuKe3IQT8OoPDCED9f-1" vertex="1">
          <mxGeometry x="60" y="970" width="120" height="30" as="geometry" />
        </mxCell>
        <mxCell id="cYjT16HvaFi7w7iUG4rs-13" value="" style="endArrow=none;html=1;rounded=0;exitX=0.5;exitY=1;exitDx=0;exitDy=0;entryX=0.5;entryY=0;entryDx=0;entryDy=0;" parent="YZHuKe3IQT8OoPDCED9f-1" source="cYjT16HvaFi7w7iUG4rs-12" target="cYjT16HvaFi7w7iUG4rs-9" edge="1">
          <mxGeometry width="50" height="50" relative="1" as="geometry">
            <mxPoint x="210" y="910" as="sourcePoint" />
            <mxPoint x="260" y="860" as="targetPoint" />
          </mxGeometry>
        </mxCell>
        <mxCell id="cYjT16HvaFi7w7iUG4rs-14" value="" style="endArrow=classic;html=1;rounded=0;fontFamily=Comic Sans MS;" parent="YZHuKe3IQT8OoPDCED9f-1" edge="1">
          <mxGeometry width="50" height="50" relative="1" as="geometry">
            <mxPoint x="280" y="300" as="sourcePoint" />
            <mxPoint x="720" y="300" as="targetPoint" />
          </mxGeometry>
        </mxCell>
        <mxCell id="cYjT16HvaFi7w7iUG4rs-15" value="chargement des campagne de votes" style="edgeLabel;html=1;align=center;verticalAlign=middle;resizable=0;points=[];fontFamily=Comic Sans MS;" parent="cYjT16HvaFi7w7iUG4rs-14" vertex="1" connectable="0">
          <mxGeometry x="-0.14" relative="1" as="geometry">
            <mxPoint x="11" y="-12" as="offset" />
          </mxGeometry>
        </mxCell>
        <mxCell id="cYjT16HvaFi7w7iUG4rs-16" value="" style="endArrow=classic;html=1;rounded=0;fontFamily=Comic Sans MS;labelBackgroundColor=none;" parent="YZHuKe3IQT8OoPDCED9f-1" edge="1">
          <mxGeometry width="50" height="50" relative="1" as="geometry">
            <mxPoint x="372" y="460" as="sourcePoint" />
            <mxPoint x="582" y="460" as="targetPoint" />
          </mxGeometry>
        </mxCell>
        <mxCell id="cYjT16HvaFi7w7iUG4rs-17" value="demandes d&#39;autorisationDto" style="edgeLabel;html=1;align=center;verticalAlign=middle;resizable=0;points=[];fontFamily=Comic Sans MS;labelBackgroundColor=none;" parent="cYjT16HvaFi7w7iUG4rs-16" vertex="1" connectable="0">
          <mxGeometry x="-0.14" relative="1" as="geometry">
            <mxPoint x="11" y="-12" as="offset" />
          </mxGeometry>
        </mxCell>
        <mxCell id="cYjT16HvaFi7w7iUG4rs-18" value="" style="endArrow=classic;html=1;rounded=0;fontFamily=Comic Sans MS;" parent="YZHuKe3IQT8OoPDCED9f-1" edge="1">
          <mxGeometry width="50" height="50" relative="1" as="geometry">
            <mxPoint x="280" y="353.5" as="sourcePoint" />
            <mxPoint x="720" y="350" as="targetPoint" />
          </mxGeometry>
        </mxCell>
        <mxCell id="cYjT16HvaFi7w7iUG4rs-19" value="status des demandes d&#39;autorisationDto" style="edgeLabel;html=1;align=center;verticalAlign=middle;resizable=0;points=[];fontFamily=Comic Sans MS;" parent="cYjT16HvaFi7w7iUG4rs-18" vertex="1" connectable="0">
          <mxGeometry x="-0.14" relative="1" as="geometry">
            <mxPoint x="11" y="-12" as="offset" />
          </mxGeometry>
        </mxCell>
        <mxCell id="cYjT16HvaFi7w7iUG4rs-24" value="" style="endArrow=classic;html=1;rounded=0;entryX=0;entryY=0.5;entryDx=0;entryDy=0;fontFamily=Comic Sans MS;" parent="YZHuKe3IQT8OoPDCED9f-1" target="YZHuKe3IQT8OoPDCED9f-15" edge="1">
          <mxGeometry width="50" height="50" relative="1" as="geometry">
            <mxPoint x="1510" y="710" as="sourcePoint" />
            <mxPoint x="1670" y="715" as="targetPoint" />
          </mxGeometry>
        </mxCell>
        <mxCell id="7M4puS-Z2sabRgo2JTUk-0" value="" style="endArrow=classic;html=1;rounded=0;fontFamily=Comic Sans MS;entryX=0.792;entryY=0.157;entryDx=0;entryDy=0;entryPerimeter=0;" parent="YZHuKe3IQT8OoPDCED9f-1" edge="1">
          <mxGeometry width="50" height="50" relative="1" as="geometry">
            <mxPoint x="372" y="430" as="sourcePoint" />
            <mxPoint x="582.0074999999999" y="430.02" as="targetPoint" />
          </mxGeometry>
        </mxCell>
        <mxCell id="7M4puS-Z2sabRgo2JTUk-1" value="envoyer un vote" style="edgeLabel;html=1;align=center;verticalAlign=middle;resizable=0;points=[];labelBackgroundColor=none;fontFamily=Comic Sans MS;" parent="7M4puS-Z2sabRgo2JTUk-0" vertex="1" connectable="0">
          <mxGeometry x="-0.14" relative="1" as="geometry">
            <mxPoint x="11" y="-12" as="offset" />
          </mxGeometry>
        </mxCell>
        <mxCell id="7M4puS-Z2sabRgo2JTUk-2" value="" style="endArrow=none;html=1;rounded=0;fontFamily=Comic Sans MS;endFill=0;startArrow=classicThin;startFill=1;labelBackgroundColor=none;" parent="YZHuKe3IQT8OoPDCED9f-1" edge="1">
          <mxGeometry width="50" height="50" relative="1" as="geometry">
            <mxPoint x="372" y="490" as="sourcePoint" />
            <mxPoint x="582" y="490" as="targetPoint" />
          </mxGeometry>
        </mxCell>
        <mxCell id="7M4puS-Z2sabRgo2JTUk-3" value="autorisationDto de vote" style="edgeLabel;html=1;align=center;verticalAlign=middle;resizable=0;points=[];fontFamily=Comic Sans MS;labelBackgroundColor=none;" parent="7M4puS-Z2sabRgo2JTUk-2" vertex="1" connectable="0">
          <mxGeometry x="-0.14" relative="1" as="geometry">
            <mxPoint x="11" y="-12" as="offset" />
          </mxGeometry>
        </mxCell>
        <mxCell id="x41feNUvxlQaRu6Gyzd4-0" value="Consulter les campagnes de votes ouvertes" style="ellipse;whiteSpace=wrap;html=1;fontFamily=Comic Sans MS;" parent="YZHuKe3IQT8OoPDCED9f-1" vertex="1">
          <mxGeometry x="1730" y="220" width="120" height="80" as="geometry" />
        </mxCell>
        <mxCell id="x41feNUvxlQaRu6Gyzd4-1" value="" style="endArrow=classic;html=1;rounded=0;entryX=0;entryY=0.5;entryDx=0;entryDy=0;fontFamily=Comic Sans MS;" parent="YZHuKe3IQT8OoPDCED9f-1" target="x41feNUvxlQaRu6Gyzd4-0" edge="1">
          <mxGeometry width="50" height="50" relative="1" as="geometry">
            <mxPoint x="1500" y="320" as="sourcePoint" />
            <mxPoint x="1720" y="360" as="targetPoint" />
          </mxGeometry>
        </mxCell>
      </root>
    </mxGraphModel>
  </diagram>
  <diagram id="laqYGoaTz-bC8XaOvl27" name="campagne">
    <mxGraphModel dx="979" dy="743" grid="1" gridSize="10" guides="1" tooltips="1" connect="1" arrows="1" fold="1" page="1" pageScale="1" pageWidth="827" pageHeight="1169" math="0" shadow="0">
      <root>
        <mxCell id="0" />
        <mxCell id="1" parent="0" />
        <mxCell id="jifckHi1w7KkarNMIVgr-1" value="CREATED" style="rounded=0;whiteSpace=wrap;html=1;" parent="1" vertex="1">
          <mxGeometry x="80" y="200" width="120" height="60" as="geometry" />
        </mxCell>
        <mxCell id="jifckHi1w7KkarNMIVgr-2" value="OPENED" style="rounded=0;whiteSpace=wrap;html=1;" parent="1" vertex="1">
          <mxGeometry x="280" y="200" width="120" height="60" as="geometry" />
        </mxCell>
        <mxCell id="jifckHi1w7KkarNMIVgr-3" value="CLOSED" style="rounded=0;whiteSpace=wrap;html=1;" parent="1" vertex="1">
          <mxGeometry x="500" y="200" width="120" height="60" as="geometry" />
        </mxCell>
        <mxCell id="pL2XDV4Qtp0TUPfuQ_c9-1" value="&lt;h1&gt;Created&lt;/h1&gt;&lt;p&gt;- modification possibles&lt;br&gt;&lt;span style=&quot;background-color: initial;&quot;&gt;- impossible de voter&amp;nbsp;&lt;/span&gt;&lt;/p&gt;&lt;p&gt;&lt;br&gt;&lt;/p&gt;" style="text;html=1;strokeColor=none;fillColor=none;spacing=5;spacingTop=-20;whiteSpace=wrap;overflow=hidden;rounded=0;" parent="1" vertex="1">
          <mxGeometry x="80" y="290" width="190" height="120" as="geometry" />
        </mxCell>
        <mxCell id="pL2XDV4Qtp0TUPfuQ_c9-2" value="&lt;h1&gt;Opened&lt;/h1&gt;&lt;p&gt;- modification impossibles&lt;br&gt;&lt;span style=&quot;background-color: initial;&quot;&gt;- possible de voter&amp;nbsp;&lt;/span&gt;&lt;/p&gt;&lt;p&gt;&lt;br&gt;&lt;/p&gt;" style="text;html=1;strokeColor=none;fillColor=none;spacing=5;spacingTop=-20;whiteSpace=wrap;overflow=hidden;rounded=0;" parent="1" vertex="1">
          <mxGeometry x="280" y="290" width="190" height="120" as="geometry" />
        </mxCell>
        <mxCell id="pL2XDV4Qtp0TUPfuQ_c9-3" value="&lt;h1&gt;Closed&lt;/h1&gt;&lt;p&gt;- modification impossibles&lt;br&gt;&lt;span style=&quot;background-color: initial;&quot;&gt;- plus possible de voter&amp;nbsp;&lt;/span&gt;&lt;/p&gt;&lt;p&gt;&lt;br&gt;&lt;/p&gt;" style="text;html=1;strokeColor=none;fillColor=none;spacing=5;spacingTop=-20;whiteSpace=wrap;overflow=hidden;rounded=0;" parent="1" vertex="1">
          <mxGeometry x="500" y="290" width="190" height="120" as="geometry" />
        </mxCell>
        <mxCell id="pL2XDV4Qtp0TUPfuQ_c9-4" value="" style="endArrow=classic;html=1;rounded=0;exitX=1;exitY=0.5;exitDx=0;exitDy=0;" parent="1" source="jifckHi1w7KkarNMIVgr-1" target="jifckHi1w7KkarNMIVgr-2" edge="1">
          <mxGeometry width="50" height="50" relative="1" as="geometry">
            <mxPoint x="380" y="560" as="sourcePoint" />
            <mxPoint x="430" y="510" as="targetPoint" />
          </mxGeometry>
        </mxCell>
        <mxCell id="pL2XDV4Qtp0TUPfuQ_c9-5" value="" style="endArrow=classic;html=1;rounded=0;exitX=1;exitY=0.5;exitDx=0;exitDy=0;entryX=0;entryY=0.5;entryDx=0;entryDy=0;" parent="1" source="jifckHi1w7KkarNMIVgr-2" target="jifckHi1w7KkarNMIVgr-3" edge="1">
          <mxGeometry width="50" height="50" relative="1" as="geometry">
            <mxPoint x="380" y="560" as="sourcePoint" />
            <mxPoint x="430" y="510" as="targetPoint" />
          </mxGeometry>
        </mxCell>
      </root>
    </mxGraphModel>
  </diagram>
  <diagram id="YN4B7m1bKnlNJ09ri9LZ" name="séquences">
    <mxGraphModel dx="979" dy="743" grid="0" gridSize="10" guides="1" tooltips="1" connect="1" arrows="1" fold="1" page="1" pageScale="1" pageWidth="827" pageHeight="1169" math="0" shadow="0">
      <root>
        <mxCell id="0" />
        <mxCell id="1" parent="0" />
        <mxCell id="d7fJOp_VAeOxcwcMYO4r-68" value="" style="html=1;points=[[0,0,0,0,5],[0,1,0,0,-5],[1,0,0,0,5],[1,1,0,0,-5]];perimeter=orthogonalPerimeter;outlineConnect=0;targetShapes=umlLifeline;portConstraint=eastwest;newEdgeStyle={&quot;curved&quot;:0,&quot;rounded&quot;:0};" parent="1" vertex="1">
          <mxGeometry x="878" y="1921" width="10" height="200" as="geometry" />
        </mxCell>
        <mxCell id="d7fJOp_VAeOxcwcMYO4r-52" value="voting-service" style="shape=umlLifeline;perimeter=lifelinePerimeter;whiteSpace=wrap;html=1;container=1;dropTarget=0;collapsible=0;recursiveResize=0;outlineConnect=0;portConstraint=eastwest;newEdgeStyle={&quot;curved&quot;:0,&quot;rounded&quot;:0};" parent="1" vertex="1">
          <mxGeometry x="833" y="1370" width="100" height="890" as="geometry" />
        </mxCell>
        <mxCell id="d7fJOp_VAeOxcwcMYO4r-53" value="" style="html=1;points=[[0,0,0,0,5],[0,1,0,0,-5],[1,0,0,0,5],[1,1,0,0,-5]];perimeter=orthogonalPerimeter;outlineConnect=0;targetShapes=umlLifeline;portConstraint=eastwest;newEdgeStyle={&quot;curved&quot;:0,&quot;rounded&quot;:0};" parent="d7fJOp_VAeOxcwcMYO4r-52" vertex="1">
          <mxGeometry x="45" y="146" width="10" height="174" as="geometry" />
        </mxCell>
        <mxCell id="iPblKy09mUHJfyRKvofy-20" value="" style="html=1;points=[[0,0,0,0,5],[0,1,0,0,-5],[1,0,0,0,5],[1,1,0,0,-5]];perimeter=orthogonalPerimeter;outlineConnect=0;targetShapes=umlLifeline;portConstraint=eastwest;newEdgeStyle={&quot;curved&quot;:0,&quot;rounded&quot;:0};" vertex="1" parent="d7fJOp_VAeOxcwcMYO4r-52">
          <mxGeometry x="50" y="586" width="10" height="36" as="geometry" />
        </mxCell>
        <mxCell id="g2WLxvHRRzoy5FguBU57-2" value="" style="endArrow=none;dashed=1;html=1;strokeWidth=1;rounded=0;" parent="1" source="RSGCzld2MX8THleIhDVx-1" edge="1">
          <mxGeometry width="50" height="50" relative="1" as="geometry">
            <mxPoint x="104" y="1980" as="sourcePoint" />
            <mxPoint x="104" y="1500" as="targetPoint" />
          </mxGeometry>
        </mxCell>
        <mxCell id="d7fJOp_VAeOxcwcMYO4r-75" value="" style="rounded=1;whiteSpace=wrap;html=1;fillColor=#f5f5f5;fontColor=#333333;strokeColor=#666666;" parent="1" vertex="1">
          <mxGeometry x="270" y="440" width="300" height="52" as="geometry" />
        </mxCell>
        <mxCell id="Fk7oSRnn7q1wSvNbQHEF-2" value="admin-service" style="shape=umlLifeline;perimeter=lifelinePerimeter;whiteSpace=wrap;html=1;container=1;dropTarget=0;collapsible=0;recursiveResize=0;outlineConnect=0;portConstraint=eastwest;newEdgeStyle={&quot;curved&quot;:0,&quot;rounded&quot;:0};" parent="1" vertex="1">
          <mxGeometry x="409" y="200" width="100" height="500" as="geometry" />
        </mxCell>
        <mxCell id="LbYM_KVFsJiO3DuRA1aw-4" value="" style="html=1;points=[[0,0,0,0,5],[0,1,0,0,-5],[1,0,0,0,5],[1,1,0,0,-5]];perimeter=orthogonalPerimeter;outlineConnect=0;targetShapes=umlLifeline;portConstraint=eastwest;newEdgeStyle={&quot;curved&quot;:0,&quot;rounded&quot;:0};" parent="Fk7oSRnn7q1wSvNbQHEF-2" vertex="1">
          <mxGeometry x="45" y="146" width="10" height="84" as="geometry" />
        </mxCell>
        <mxCell id="LbYM_KVFsJiO3DuRA1aw-7" value="" style="html=1;points=[[0,0,0,0,5],[0,1,0,0,-5],[1,0,0,0,5],[1,1,0,0,-5]];perimeter=orthogonalPerimeter;outlineConnect=0;targetShapes=umlLifeline;portConstraint=eastwest;newEdgeStyle={&quot;curved&quot;:0,&quot;rounded&quot;:0};" parent="Fk7oSRnn7q1wSvNbQHEF-2" vertex="1">
          <mxGeometry x="50" y="160" width="10" height="40" as="geometry" />
        </mxCell>
        <mxCell id="NzW_p6632limlMomboR4-6" value="" style="html=1;points=[[0,0,0,0,5],[0,1,0,0,-5],[1,0,0,0,5],[1,1,0,0,-5]];perimeter=orthogonalPerimeter;outlineConnect=0;targetShapes=umlLifeline;portConstraint=eastwest;newEdgeStyle={&quot;curved&quot;:0,&quot;rounded&quot;:0};" parent="1" vertex="1">
          <mxGeometry x="454" y="498" width="10" height="84" as="geometry" />
        </mxCell>
        <mxCell id="Fk7oSRnn7q1wSvNbQHEF-1" value="&lt;h1&gt;Création et paramétrage d&#39;une campagne de vote&lt;/h1&gt;&lt;p&gt;Diagramme de séquence &quot;happy path&quot;&lt;/p&gt;&lt;p&gt;Création et paramétrage d&#39;une campagne de vote&lt;/p&gt;" style="text;html=1;strokeColor=none;fillColor=none;spacing=5;spacingTop=-20;whiteSpace=wrap;overflow=hidden;rounded=0;" parent="1" vertex="1">
          <mxGeometry x="10" y="10" width="590" height="120" as="geometry" />
        </mxCell>
        <mxCell id="Fk7oSRnn7q1wSvNbQHEF-3" value="admin-service&lt;br&gt;DB" style="shape=umlLifeline;perimeter=lifelinePerimeter;whiteSpace=wrap;html=1;container=1;dropTarget=0;collapsible=0;recursiveResize=0;outlineConnect=0;portConstraint=eastwest;newEdgeStyle={&quot;curved&quot;:0,&quot;rounded&quot;:0};" parent="1" vertex="1">
          <mxGeometry x="599" y="200" width="100" height="500" as="geometry" />
        </mxCell>
        <mxCell id="LbYM_KVFsJiO3DuRA1aw-8" value="" style="html=1;points=[[0,0,0,0,5],[0,1,0,0,-5],[1,0,0,0,5],[1,1,0,0,-5]];perimeter=orthogonalPerimeter;outlineConnect=0;targetShapes=umlLifeline;portConstraint=eastwest;newEdgeStyle={&quot;curved&quot;:0,&quot;rounded&quot;:0};" parent="Fk7oSRnn7q1wSvNbQHEF-3" vertex="1">
          <mxGeometry x="45" y="160" width="10" height="40" as="geometry" />
        </mxCell>
        <mxCell id="NzW_p6632limlMomboR4-11" value="" style="html=1;points=[[0,0,0,0,5],[0,1,0,0,-5],[1,0,0,0,5],[1,1,0,0,-5]];perimeter=orthogonalPerimeter;outlineConnect=0;targetShapes=umlLifeline;portConstraint=eastwest;newEdgeStyle={&quot;curved&quot;:0,&quot;rounded&quot;:0};" parent="Fk7oSRnn7q1wSvNbQHEF-3" vertex="1">
          <mxGeometry x="45" y="310" width="10" height="40" as="geometry" />
        </mxCell>
        <mxCell id="d7fJOp_VAeOxcwcMYO4r-11" value="" style="html=1;points=[[0,0,0,0,5],[0,1,0,0,-5],[1,0,0,0,5],[1,1,0,0,-5]];perimeter=orthogonalPerimeter;outlineConnect=0;targetShapes=umlLifeline;portConstraint=eastwest;newEdgeStyle={&quot;curved&quot;:0,&quot;rounded&quot;:0};" parent="Fk7oSRnn7q1wSvNbQHEF-3" vertex="1">
          <mxGeometry x="45" y="460" width="10" height="40" as="geometry" />
        </mxCell>
        <mxCell id="Fk7oSRnn7q1wSvNbQHEF-4" value="" style="shape=cylinder3;whiteSpace=wrap;html=1;boundedLbl=1;backgroundOutline=1;size=15;" parent="1" vertex="1">
          <mxGeometry x="629" y="130" width="40" height="60" as="geometry" />
        </mxCell>
        <mxCell id="4Zopi3fA3PfJ51Q34e6X-1" value="Gestionnaire &lt;br&gt;de campagne" style="shape=umlActor;verticalLabelPosition=bottom;verticalAlign=top;html=1;outlineConnect=0;fontFamily=Comic Sans MS;fontStyle=1" parent="1" vertex="1">
          <mxGeometry x="149" y="170" width="30" height="60" as="geometry" />
        </mxCell>
        <mxCell id="LbYM_KVFsJiO3DuRA1aw-1" value="Créer une campagne" style="ellipse;whiteSpace=wrap;html=1;fontFamily=Comic Sans MS;" parent="1" vertex="1">
          <mxGeometry x="101" y="290" width="126" height="50" as="geometry" />
        </mxCell>
        <mxCell id="LbYM_KVFsJiO3DuRA1aw-2" value="" style="endArrow=none;dashed=1;html=1;strokeWidth=1;rounded=0;" parent="1" source="85qyE24sk0BPrfqQ9hXx-1" edge="1">
          <mxGeometry width="50" height="50" relative="1" as="geometry">
            <mxPoint x="164" y="600" as="sourcePoint" />
            <mxPoint x="163.5" y="280" as="targetPoint" />
          </mxGeometry>
        </mxCell>
        <mxCell id="LbYM_KVFsJiO3DuRA1aw-3" value="" style="html=1;points=[[0,0,0,0,5],[0,1,0,0,-5],[1,0,0,0,5],[1,1,0,0,-5]];perimeter=orthogonalPerimeter;outlineConnect=0;targetShapes=umlLifeline;portConstraint=eastwest;newEdgeStyle={&quot;curved&quot;:0,&quot;rounded&quot;:0};" parent="1" vertex="1">
          <mxGeometry x="159" y="360" width="10" height="60" as="geometry" />
        </mxCell>
        <mxCell id="LbYM_KVFsJiO3DuRA1aw-5" value="" style="endArrow=classic;html=1;rounded=0;exitX=1;exitY=0;exitDx=0;exitDy=5;exitPerimeter=0;" parent="1" source="LbYM_KVFsJiO3DuRA1aw-3" target="Fk7oSRnn7q1wSvNbQHEF-2" edge="1">
          <mxGeometry width="50" height="50" relative="1" as="geometry">
            <mxPoint x="369" y="560" as="sourcePoint" />
            <mxPoint x="419" y="510" as="targetPoint" />
          </mxGeometry>
        </mxCell>
        <mxCell id="LbYM_KVFsJiO3DuRA1aw-6" value="POST /campagne" style="edgeLabel;html=1;align=center;verticalAlign=middle;resizable=0;points=[];" parent="LbYM_KVFsJiO3DuRA1aw-5" vertex="1" connectable="0">
          <mxGeometry x="0.0984" y="1" relative="1" as="geometry">
            <mxPoint as="offset" />
          </mxGeometry>
        </mxCell>
        <mxCell id="LbYM_KVFsJiO3DuRA1aw-9" value="" style="endArrow=classic;html=1;rounded=0;exitX=1;exitY=0;exitDx=0;exitDy=5;exitPerimeter=0;" parent="1" source="LbYM_KVFsJiO3DuRA1aw-7" target="Fk7oSRnn7q1wSvNbQHEF-3" edge="1">
          <mxGeometry width="50" height="50" relative="1" as="geometry">
            <mxPoint x="369" y="560" as="sourcePoint" />
            <mxPoint x="419" y="510" as="targetPoint" />
          </mxGeometry>
        </mxCell>
        <mxCell id="LbYM_KVFsJiO3DuRA1aw-10" value="INSERT campagne" style="edgeLabel;html=1;align=center;verticalAlign=middle;resizable=0;points=[];" parent="LbYM_KVFsJiO3DuRA1aw-9" vertex="1" connectable="0">
          <mxGeometry x="0.0028" y="-2" relative="1" as="geometry">
            <mxPoint as="offset" />
          </mxGeometry>
        </mxCell>
        <mxCell id="LbYM_KVFsJiO3DuRA1aw-11" value="" style="endArrow=classic;html=1;rounded=0;" parent="1" edge="1">
          <mxGeometry width="50" height="50" relative="1" as="geometry">
            <mxPoint x="644" y="391" as="sourcePoint" />
            <mxPoint x="469" y="391" as="targetPoint" />
          </mxGeometry>
        </mxCell>
        <mxCell id="LbYM_KVFsJiO3DuRA1aw-12" value="" style="endArrow=classic;html=1;rounded=0;" parent="1" source="LbYM_KVFsJiO3DuRA1aw-4" edge="1">
          <mxGeometry width="50" height="50" relative="1" as="geometry">
            <mxPoint x="449" y="408" as="sourcePoint" />
            <mxPoint x="169" y="408" as="targetPoint" />
          </mxGeometry>
        </mxCell>
        <mxCell id="uCeD7KFE58w6dxspJFez-16" value="201 Created" style="edgeLabel;html=1;align=center;verticalAlign=middle;resizable=0;points=[];" parent="LbYM_KVFsJiO3DuRA1aw-12" vertex="1" connectable="0">
          <mxGeometry x="0.1298" y="-1" relative="1" as="geometry">
            <mxPoint as="offset" />
          </mxGeometry>
        </mxCell>
        <mxCell id="NzW_p6632limlMomboR4-3" value="" style="endArrow=none;dashed=1;html=1;strokeWidth=1;rounded=0;" parent="1" target="NzW_p6632limlMomboR4-2" edge="1">
          <mxGeometry width="50" height="50" relative="1" as="geometry">
            <mxPoint x="164" y="747" as="sourcePoint" />
            <mxPoint x="163.5" y="280" as="targetPoint" />
          </mxGeometry>
        </mxCell>
        <mxCell id="NzW_p6632limlMomboR4-2" value="" style="html=1;points=[[0,0,0,0,5],[0,1,0,0,-5],[1,0,0,0,5],[1,1,0,0,-5]];perimeter=orthogonalPerimeter;outlineConnect=0;targetShapes=umlLifeline;portConstraint=eastwest;newEdgeStyle={&quot;curved&quot;:0,&quot;rounded&quot;:0};" parent="1" vertex="1">
          <mxGeometry x="159" y="510" width="10" height="60" as="geometry" />
        </mxCell>
        <mxCell id="NzW_p6632limlMomboR4-4" value="" style="endArrow=classic;html=1;rounded=0;exitX=1;exitY=0;exitDx=0;exitDy=5;exitPerimeter=0;" parent="1" edge="1">
          <mxGeometry width="50" height="50" relative="1" as="geometry">
            <mxPoint x="169" y="520" as="sourcePoint" />
            <mxPoint x="459" y="520" as="targetPoint" />
          </mxGeometry>
        </mxCell>
        <mxCell id="NzW_p6632limlMomboR4-5" value="POST /campagne/:id/objet" style="edgeLabel;html=1;align=center;verticalAlign=middle;resizable=0;points=[];" parent="NzW_p6632limlMomboR4-4" vertex="1" connectable="0">
          <mxGeometry x="0.0984" y="1" relative="1" as="geometry">
            <mxPoint as="offset" />
          </mxGeometry>
        </mxCell>
        <mxCell id="NzW_p6632limlMomboR4-7" value="" style="html=1;points=[[0,0,0,0,5],[0,1,0,0,-5],[1,0,0,0,5],[1,1,0,0,-5]];perimeter=orthogonalPerimeter;outlineConnect=0;targetShapes=umlLifeline;portConstraint=eastwest;newEdgeStyle={&quot;curved&quot;:0,&quot;rounded&quot;:0};" parent="1" vertex="1">
          <mxGeometry x="460" y="513" width="10" height="40" as="geometry" />
        </mxCell>
        <mxCell id="NzW_p6632limlMomboR4-8" value="" style="endArrow=classic;html=1;rounded=0;exitX=1;exitY=0;exitDx=0;exitDy=5;exitPerimeter=0;" parent="1" source="NzW_p6632limlMomboR4-7" edge="1">
          <mxGeometry width="50" height="50" relative="1" as="geometry">
            <mxPoint x="370" y="713" as="sourcePoint" />
            <mxPoint x="650" y="518" as="targetPoint" />
          </mxGeometry>
        </mxCell>
        <mxCell id="NzW_p6632limlMomboR4-9" value="INSERT objet" style="edgeLabel;html=1;align=center;verticalAlign=middle;resizable=0;points=[];" parent="NzW_p6632limlMomboR4-8" vertex="1" connectable="0">
          <mxGeometry x="0.0028" y="-2" relative="1" as="geometry">
            <mxPoint as="offset" />
          </mxGeometry>
        </mxCell>
        <mxCell id="NzW_p6632limlMomboR4-10" value="" style="endArrow=classic;html=1;rounded=0;" parent="1" edge="1">
          <mxGeometry width="50" height="50" relative="1" as="geometry">
            <mxPoint x="645" y="544" as="sourcePoint" />
            <mxPoint x="470" y="544" as="targetPoint" />
          </mxGeometry>
        </mxCell>
        <mxCell id="NzW_p6632limlMomboR4-12" value="" style="endArrow=classic;html=1;rounded=0;" parent="1" edge="1">
          <mxGeometry width="50" height="50" relative="1" as="geometry">
            <mxPoint x="454" y="560" as="sourcePoint" />
            <mxPoint x="169" y="560" as="targetPoint" />
          </mxGeometry>
        </mxCell>
        <mxCell id="uCeD7KFE58w6dxspJFez-17" value="201 Created" style="edgeLabel;html=1;align=center;verticalAlign=middle;resizable=0;points=[];" parent="NzW_p6632limlMomboR4-12" vertex="1" connectable="0">
          <mxGeometry x="-0.0246" y="2" relative="1" as="geometry">
            <mxPoint as="offset" />
          </mxGeometry>
        </mxCell>
        <mxCell id="85qyE24sk0BPrfqQ9hXx-2" value="" style="endArrow=none;dashed=1;html=1;strokeWidth=1;rounded=0;" parent="1" source="NzW_p6632limlMomboR4-2" target="85qyE24sk0BPrfqQ9hXx-1" edge="1">
          <mxGeometry width="50" height="50" relative="1" as="geometry">
            <mxPoint x="164" y="510" as="sourcePoint" />
            <mxPoint x="163.5" y="280" as="targetPoint" />
          </mxGeometry>
        </mxCell>
        <mxCell id="85qyE24sk0BPrfqQ9hXx-1" value="Ajouter des objets à une campagne" style="ellipse;whiteSpace=wrap;html=1;fontFamily=Comic Sans MS;" parent="1" vertex="1">
          <mxGeometry x="91" y="440" width="146" height="52" as="geometry" />
        </mxCell>
        <mxCell id="d7fJOp_VAeOxcwcMYO4r-1" value="Modifier/Démarrer/Stopper une campage" style="ellipse;whiteSpace=wrap;html=1;fontFamily=Comic Sans MS;" parent="1" vertex="1">
          <mxGeometry x="80" y="589.5" width="168" height="55" as="geometry" />
        </mxCell>
        <mxCell id="d7fJOp_VAeOxcwcMYO4r-2" value="" style="html=1;points=[[0,0,0,0,5],[0,1,0,0,-5],[1,0,0,0,5],[1,1,0,0,-5]];perimeter=orthogonalPerimeter;outlineConnect=0;targetShapes=umlLifeline;portConstraint=eastwest;newEdgeStyle={&quot;curved&quot;:0,&quot;rounded&quot;:0};" parent="1" vertex="1">
          <mxGeometry x="454" y="645" width="10" height="84" as="geometry" />
        </mxCell>
        <mxCell id="d7fJOp_VAeOxcwcMYO4r-3" value="" style="html=1;points=[[0,0,0,0,5],[0,1,0,0,-5],[1,0,0,0,5],[1,1,0,0,-5]];perimeter=orthogonalPerimeter;outlineConnect=0;targetShapes=umlLifeline;portConstraint=eastwest;newEdgeStyle={&quot;curved&quot;:0,&quot;rounded&quot;:0};" parent="1" vertex="1">
          <mxGeometry x="159" y="657" width="10" height="60" as="geometry" />
        </mxCell>
        <mxCell id="d7fJOp_VAeOxcwcMYO4r-4" value="" style="endArrow=classic;html=1;rounded=0;exitX=1;exitY=0;exitDx=0;exitDy=5;exitPerimeter=0;" parent="1" edge="1">
          <mxGeometry width="50" height="50" relative="1" as="geometry">
            <mxPoint x="169" y="667" as="sourcePoint" />
            <mxPoint x="459" y="667" as="targetPoint" />
          </mxGeometry>
        </mxCell>
        <mxCell id="d7fJOp_VAeOxcwcMYO4r-5" value="POST /campagne/:id?action=OPEN" style="edgeLabel;html=1;align=center;verticalAlign=middle;resizable=0;points=[];" parent="d7fJOp_VAeOxcwcMYO4r-4" vertex="1" connectable="0">
          <mxGeometry x="0.0984" y="1" relative="1" as="geometry">
            <mxPoint as="offset" />
          </mxGeometry>
        </mxCell>
        <mxCell id="d7fJOp_VAeOxcwcMYO4r-6" value="" style="html=1;points=[[0,0,0,0,5],[0,1,0,0,-5],[1,0,0,0,5],[1,1,0,0,-5]];perimeter=orthogonalPerimeter;outlineConnect=0;targetShapes=umlLifeline;portConstraint=eastwest;newEdgeStyle={&quot;curved&quot;:0,&quot;rounded&quot;:0};" parent="1" vertex="1">
          <mxGeometry x="460" y="660" width="10" height="40" as="geometry" />
        </mxCell>
        <mxCell id="d7fJOp_VAeOxcwcMYO4r-7" value="" style="endArrow=classic;html=1;rounded=0;" parent="1" edge="1">
          <mxGeometry width="50" height="50" relative="1" as="geometry">
            <mxPoint x="454" y="707" as="sourcePoint" />
            <mxPoint x="169" y="707" as="targetPoint" />
          </mxGeometry>
        </mxCell>
        <mxCell id="uCeD7KFE58w6dxspJFez-18" value="200 Ok" style="edgeLabel;html=1;align=center;verticalAlign=middle;resizable=0;points=[];" parent="d7fJOp_VAeOxcwcMYO4r-7" vertex="1" connectable="0">
          <mxGeometry x="-0.0386" y="1" relative="1" as="geometry">
            <mxPoint as="offset" />
          </mxGeometry>
        </mxCell>
        <mxCell id="d7fJOp_VAeOxcwcMYO4r-8" value="" style="endArrow=classic;html=1;rounded=0;exitX=1;exitY=0;exitDx=0;exitDy=5;exitPerimeter=0;" parent="1" edge="1">
          <mxGeometry width="50" height="50" relative="1" as="geometry">
            <mxPoint x="470" y="666.5" as="sourcePoint" />
            <mxPoint x="650" y="666.5" as="targetPoint" />
          </mxGeometry>
        </mxCell>
        <mxCell id="d7fJOp_VAeOxcwcMYO4r-9" value="UPDATE campagne" style="edgeLabel;html=1;align=center;verticalAlign=middle;resizable=0;points=[];" parent="d7fJOp_VAeOxcwcMYO4r-8" vertex="1" connectable="0">
          <mxGeometry x="0.0028" y="-2" relative="1" as="geometry">
            <mxPoint as="offset" />
          </mxGeometry>
        </mxCell>
        <mxCell id="d7fJOp_VAeOxcwcMYO4r-10" value="" style="endArrow=classic;html=1;rounded=0;" parent="1" edge="1">
          <mxGeometry width="50" height="50" relative="1" as="geometry">
            <mxPoint x="645" y="692.5" as="sourcePoint" />
            <mxPoint x="470" y="692.5" as="targetPoint" />
          </mxGeometry>
        </mxCell>
        <mxCell id="d7fJOp_VAeOxcwcMYO4r-12" value="&lt;h1&gt;Demande et obtention d&#39;une autorisation de vote&lt;/h1&gt;&lt;p&gt;Diagramme de séquence &quot;happy path&quot;&lt;/p&gt;&lt;p&gt;Obtention d&#39;une autorsation de vote pour un votant&lt;/p&gt;" style="text;html=1;strokeColor=none;fillColor=none;spacing=5;spacingTop=-20;whiteSpace=wrap;overflow=hidden;rounded=0;" parent="1" vertex="1">
          <mxGeometry x="20" y="1180" width="680" height="120" as="geometry" />
        </mxCell>
        <mxCell id="d7fJOp_VAeOxcwcMYO4r-13" value="admin-service" style="shape=umlLifeline;perimeter=lifelinePerimeter;whiteSpace=wrap;html=1;container=1;dropTarget=0;collapsible=0;recursiveResize=0;outlineConnect=0;portConstraint=eastwest;newEdgeStyle={&quot;curved&quot;:0,&quot;rounded&quot;:0};" parent="1" vertex="1">
          <mxGeometry x="452" y="1370" width="100" height="1150" as="geometry" />
        </mxCell>
        <mxCell id="uCeD7KFE58w6dxspJFez-2" value="" style="html=1;points=[[0,0,0,0,5],[0,1,0,0,-5],[1,0,0,0,5],[1,1,0,0,-5]];perimeter=orthogonalPerimeter;outlineConnect=0;targetShapes=umlLifeline;portConstraint=eastwest;newEdgeStyle={&quot;curved&quot;:0,&quot;rounded&quot;:0};" parent="d7fJOp_VAeOxcwcMYO4r-13" vertex="1">
          <mxGeometry x="45" y="180" width="10" height="110" as="geometry" />
        </mxCell>
        <mxCell id="uCeD7KFE58w6dxspJFez-8" value="" style="html=1;points=[[0,0,0,0,5],[0,1,0,0,-5],[1,0,0,0,5],[1,1,0,0,-5]];perimeter=orthogonalPerimeter;outlineConnect=0;targetShapes=umlLifeline;portConstraint=eastwest;newEdgeStyle={&quot;curved&quot;:0,&quot;rounded&quot;:0};" parent="d7fJOp_VAeOxcwcMYO4r-13" vertex="1">
          <mxGeometry x="51" y="190" width="10" height="80" as="geometry" />
        </mxCell>
        <mxCell id="toB4cs1xJvQMzXze2Dv2-4" value="" style="html=1;points=[[0,0,0,0,5],[0,1,0,0,-5],[1,0,0,0,5],[1,1,0,0,-5]];perimeter=orthogonalPerimeter;outlineConnect=0;targetShapes=umlLifeline;portConstraint=eastwest;newEdgeStyle={&quot;curved&quot;:0,&quot;rounded&quot;:0};" parent="d7fJOp_VAeOxcwcMYO4r-13" vertex="1">
          <mxGeometry x="45" y="866" width="10" height="70" as="geometry" />
        </mxCell>
        <mxCell id="toB4cs1xJvQMzXze2Dv2-7" value="" style="html=1;points=[[0,0,0,0,5],[0,1,0,0,-5],[1,0,0,0,5],[1,1,0,0,-5]];perimeter=orthogonalPerimeter;outlineConnect=0;targetShapes=umlLifeline;portConstraint=eastwest;newEdgeStyle={&quot;curved&quot;:0,&quot;rounded&quot;:0};" parent="d7fJOp_VAeOxcwcMYO4r-13" vertex="1">
          <mxGeometry x="51" y="876" width="10" height="50" as="geometry" />
        </mxCell>
        <mxCell id="0cXi38JWvtTSrgW7rISy-4" value="" style="html=1;points=[[0,0,0,0,5],[0,1,0,0,-5],[1,0,0,0,5],[1,1,0,0,-5]];perimeter=orthogonalPerimeter;outlineConnect=0;targetShapes=umlLifeline;portConstraint=eastwest;newEdgeStyle={&quot;curved&quot;:0,&quot;rounded&quot;:0};" parent="d7fJOp_VAeOxcwcMYO4r-13" vertex="1">
          <mxGeometry x="45" y="1046" width="10" height="220" as="geometry" />
        </mxCell>
        <mxCell id="0cXi38JWvtTSrgW7rISy-7" value="" style="html=1;points=[[0,0,0,0,5],[0,1,0,0,-5],[1,0,0,0,5],[1,1,0,0,-5]];perimeter=orthogonalPerimeter;outlineConnect=0;targetShapes=umlLifeline;portConstraint=eastwest;newEdgeStyle={&quot;curved&quot;:0,&quot;rounded&quot;:0};" parent="d7fJOp_VAeOxcwcMYO4r-13" vertex="1">
          <mxGeometry x="51" y="1066" width="10" height="180" as="geometry" />
        </mxCell>
        <mxCell id="iPblKy09mUHJfyRKvofy-21" value="" style="html=1;points=[[0,0,0,0,5],[0,1,0,0,-5],[1,0,0,0,5],[1,1,0,0,-5]];perimeter=orthogonalPerimeter;outlineConnect=0;targetShapes=umlLifeline;portConstraint=eastwest;newEdgeStyle={&quot;curved&quot;:0,&quot;rounded&quot;:0};" vertex="1" parent="d7fJOp_VAeOxcwcMYO4r-13">
          <mxGeometry x="46" y="590" width="10" height="35" as="geometry" />
        </mxCell>
        <mxCell id="d7fJOp_VAeOxcwcMYO4r-17" value="admin-service&lt;br&gt;DB" style="shape=umlLifeline;perimeter=lifelinePerimeter;whiteSpace=wrap;html=1;container=1;dropTarget=0;collapsible=0;recursiveResize=0;outlineConnect=0;portConstraint=eastwest;newEdgeStyle={&quot;curved&quot;:0,&quot;rounded&quot;:0};" parent="1" vertex="1">
          <mxGeometry x="642" y="1370" width="100" height="1010" as="geometry" />
        </mxCell>
        <mxCell id="d7fJOp_VAeOxcwcMYO4r-19" value="" style="html=1;points=[[0,0,0,0,5],[0,1,0,0,-5],[1,0,0,0,5],[1,1,0,0,-5]];perimeter=orthogonalPerimeter;outlineConnect=0;targetShapes=umlLifeline;portConstraint=eastwest;newEdgeStyle={&quot;curved&quot;:0,&quot;rounded&quot;:0};" parent="d7fJOp_VAeOxcwcMYO4r-17" vertex="1">
          <mxGeometry x="45" y="210" width="10" height="40" as="geometry" />
        </mxCell>
        <mxCell id="toB4cs1xJvQMzXze2Dv2-11" value="" style="html=1;points=[[0,0,0,0,5],[0,1,0,0,-5],[1,0,0,0,5],[1,1,0,0,-5]];perimeter=orthogonalPerimeter;outlineConnect=0;targetShapes=umlLifeline;portConstraint=eastwest;newEdgeStyle={&quot;curved&quot;:0,&quot;rounded&quot;:0};" parent="d7fJOp_VAeOxcwcMYO4r-17" vertex="1">
          <mxGeometry x="45" y="876" width="10" height="50" as="geometry" />
        </mxCell>
        <mxCell id="0cXi38JWvtTSrgW7rISy-11" value="" style="html=1;points=[[0,0,0,0,5],[0,1,0,0,-5],[1,0,0,0,5],[1,1,0,0,-5]];perimeter=orthogonalPerimeter;outlineConnect=0;targetShapes=umlLifeline;portConstraint=eastwest;newEdgeStyle={&quot;curved&quot;:0,&quot;rounded&quot;:0};" parent="d7fJOp_VAeOxcwcMYO4r-17" vertex="1">
          <mxGeometry x="45" y="1066" width="10" height="140" as="geometry" />
        </mxCell>
        <mxCell id="d7fJOp_VAeOxcwcMYO4r-21" value="" style="shape=cylinder3;whiteSpace=wrap;html=1;boundedLbl=1;backgroundOutline=1;size=15;" parent="1" vertex="1">
          <mxGeometry x="672" y="1300" width="40" height="60" as="geometry" />
        </mxCell>
        <mxCell id="d7fJOp_VAeOxcwcMYO4r-22" value="Votant" style="shape=umlActor;verticalLabelPosition=bottom;verticalAlign=top;html=1;outlineConnect=0;fontFamily=Comic Sans MS;fontStyle=1" parent="1" vertex="1">
          <mxGeometry x="89" y="1340" width="30" height="60" as="geometry" />
        </mxCell>
        <mxCell id="d7fJOp_VAeOxcwcMYO4r-24" value="" style="endArrow=none;dashed=1;html=1;strokeWidth=1;rounded=0;" parent="1" edge="1">
          <mxGeometry width="50" height="50" relative="1" as="geometry">
            <mxPoint x="104" y="1436" as="sourcePoint" />
            <mxPoint x="103.5" y="1450" as="targetPoint" />
          </mxGeometry>
        </mxCell>
        <mxCell id="d7fJOp_VAeOxcwcMYO4r-25" value="" style="html=1;points=[[0,0,0,0,5],[0,1,0,0,-5],[1,0,0,0,5],[1,1,0,0,-5]];perimeter=orthogonalPerimeter;outlineConnect=0;targetShapes=umlLifeline;portConstraint=eastwest;newEdgeStyle={&quot;curved&quot;:0,&quot;rounded&quot;:0};" parent="1" vertex="1">
          <mxGeometry x="99" y="1530" width="10" height="170" as="geometry" />
        </mxCell>
        <mxCell id="d7fJOp_VAeOxcwcMYO4r-44" value="" style="html=1;points=[[0,0,0,0,5],[0,1,0,0,-5],[1,0,0,0,5],[1,1,0,0,-5]];perimeter=orthogonalPerimeter;outlineConnect=0;targetShapes=umlLifeline;portConstraint=eastwest;newEdgeStyle={&quot;curved&quot;:0,&quot;rounded&quot;:0};" parent="1" vertex="1">
          <mxGeometry x="99" y="1933" width="10" height="171" as="geometry" />
        </mxCell>
        <mxCell id="d7fJOp_VAeOxcwcMYO4r-45" value="" style="endArrow=classic;html=1;rounded=0;exitX=1;exitY=0;exitDx=0;exitDy=5;exitPerimeter=0;" parent="1" edge="1">
          <mxGeometry width="50" height="50" relative="1" as="geometry">
            <mxPoint x="109" y="1943" as="sourcePoint" />
            <mxPoint x="882.5" y="1943" as="targetPoint" />
          </mxGeometry>
        </mxCell>
        <mxCell id="d7fJOp_VAeOxcwcMYO4r-46" value="POST /demande" style="edgeLabel;html=1;align=center;verticalAlign=middle;resizable=0;points=[];" parent="d7fJOp_VAeOxcwcMYO4r-45" vertex="1" connectable="0">
          <mxGeometry x="0.0984" y="1" relative="1" as="geometry">
            <mxPoint as="offset" />
          </mxGeometry>
        </mxCell>
        <mxCell id="d7fJOp_VAeOxcwcMYO4r-48" value="" style="endArrow=classic;html=1;rounded=0;" parent="1" edge="1">
          <mxGeometry width="50" height="50" relative="1" as="geometry">
            <mxPoint x="879.5" y="2101" as="sourcePoint" />
            <mxPoint x="106" y="2101" as="targetPoint" />
          </mxGeometry>
        </mxCell>
        <mxCell id="RSGCzld2MX8THleIhDVx-8" value="200 Ok" style="edgeLabel;html=1;align=center;verticalAlign=middle;resizable=0;points=[];" parent="d7fJOp_VAeOxcwcMYO4r-48" vertex="1" connectable="0">
          <mxGeometry x="-0.0498" y="-2" relative="1" as="geometry">
            <mxPoint as="offset" />
          </mxGeometry>
        </mxCell>
        <mxCell id="d7fJOp_VAeOxcwcMYO4r-56" value="voting-service&lt;br&gt;DB" style="shape=umlLifeline;perimeter=lifelinePerimeter;whiteSpace=wrap;html=1;container=1;dropTarget=0;collapsible=0;recursiveResize=0;outlineConnect=0;portConstraint=eastwest;newEdgeStyle={&quot;curved&quot;:0,&quot;rounded&quot;:0};" parent="1" vertex="1">
          <mxGeometry x="1023" y="1468" width="100" height="1400" as="geometry" />
        </mxCell>
        <mxCell id="d7fJOp_VAeOxcwcMYO4r-57" value="" style="html=1;points=[[0,0,0,0,5],[0,1,0,0,-5],[1,0,0,0,5],[1,1,0,0,-5]];perimeter=orthogonalPerimeter;outlineConnect=0;targetShapes=umlLifeline;portConstraint=eastwest;newEdgeStyle={&quot;curved&quot;:0,&quot;rounded&quot;:0};" parent="d7fJOp_VAeOxcwcMYO4r-56" vertex="1">
          <mxGeometry x="45" y="576" width="10" height="40" as="geometry" />
        </mxCell>
        <mxCell id="0cXi38JWvtTSrgW7rISy-25" value="" style="html=1;points=[[0,0,0,0,5],[0,1,0,0,-5],[1,0,0,0,5],[1,1,0,0,-5]];perimeter=orthogonalPerimeter;outlineConnect=0;targetShapes=umlLifeline;portConstraint=eastwest;newEdgeStyle={&quot;curved&quot;:0,&quot;rounded&quot;:0};" parent="d7fJOp_VAeOxcwcMYO4r-56" vertex="1">
          <mxGeometry x="45" y="1346" width="10" height="180" as="geometry" />
        </mxCell>
        <mxCell id="d7fJOp_VAeOxcwcMYO4r-60" value="" style="shape=cylinder3;whiteSpace=wrap;html=1;boundedLbl=1;backgroundOutline=1;size=15;" parent="1" vertex="1">
          <mxGeometry x="1053" y="1300" width="40" height="60" as="geometry" />
        </mxCell>
        <mxCell id="d7fJOp_VAeOxcwcMYO4r-73" value="Lancer autant d&#39;appels que d&#39;objet à crééer" style="text;html=1;strokeColor=none;fillColor=none;align=center;verticalAlign=middle;whiteSpace=wrap;rounded=0;fontFamily=Comic Sans MS;" parent="1" vertex="1">
          <mxGeometry x="319" y="451" width="250" height="30" as="geometry" />
        </mxCell>
        <mxCell id="d7fJOp_VAeOxcwcMYO4r-74" value="" style="shape=image;verticalLabelPosition=bottom;labelBackgroundColor=default;verticalAlign=top;aspect=fixed;imageAspect=0;image=https://cdn3.iconfinder.com/data/icons/google-material-design-icons/48/ic_info_outline_48px-512.png;" parent="1" vertex="1">
          <mxGeometry x="280" y="448" width="36" height="36" as="geometry" />
        </mxCell>
        <mxCell id="uCeD7KFE58w6dxspJFez-1" value="Consulter les campagnes de votes ouvertes" style="ellipse;whiteSpace=wrap;html=1;fontFamily=Comic Sans MS;" parent="1" vertex="1">
          <mxGeometry x="45" y="1450" width="114" height="70" as="geometry" />
        </mxCell>
        <mxCell id="uCeD7KFE58w6dxspJFez-3" value="" style="endArrow=classic;html=1;rounded=0;" parent="1" source="d7fJOp_VAeOxcwcMYO4r-52" edge="1">
          <mxGeometry width="50" height="50" relative="1" as="geometry">
            <mxPoint x="682" y="1560" as="sourcePoint" />
            <mxPoint x="507" y="1560" as="targetPoint" />
          </mxGeometry>
        </mxCell>
        <mxCell id="uCeD7KFE58w6dxspJFez-4" value="GET /campagne?status=OPENED" style="edgeLabel;html=1;align=center;verticalAlign=middle;resizable=0;points=[];" parent="uCeD7KFE58w6dxspJFez-3" vertex="1" connectable="0">
          <mxGeometry x="-0.2889" y="-2" relative="1" as="geometry">
            <mxPoint x="1" as="offset" />
          </mxGeometry>
        </mxCell>
        <mxCell id="uCeD7KFE58w6dxspJFez-9" value="" style="endArrow=classic;html=1;rounded=0;" parent="1" edge="1">
          <mxGeometry width="50" height="50" relative="1" as="geometry">
            <mxPoint x="513" y="1589" as="sourcePoint" />
            <mxPoint x="687" y="1589" as="targetPoint" />
          </mxGeometry>
        </mxCell>
        <mxCell id="uCeD7KFE58w6dxspJFez-10" value="SELECT campagne" style="edgeLabel;html=1;align=center;verticalAlign=middle;resizable=0;points=[];" parent="uCeD7KFE58w6dxspJFez-9" vertex="1" connectable="0">
          <mxGeometry x="0.0028" y="-2" relative="1" as="geometry">
            <mxPoint as="offset" />
          </mxGeometry>
        </mxCell>
        <mxCell id="uCeD7KFE58w6dxspJFez-12" value="" style="endArrow=classic;html=1;rounded=0;" parent="1" edge="1">
          <mxGeometry width="50" height="50" relative="1" as="geometry">
            <mxPoint x="688" y="1610" as="sourcePoint" />
            <mxPoint x="513" y="1610" as="targetPoint" />
          </mxGeometry>
        </mxCell>
        <mxCell id="d7fJOp_VAeOxcwcMYO4r-26" value="" style="endArrow=classic;html=1;rounded=0;exitX=1;exitY=0;exitDx=0;exitDy=5;exitPerimeter=0;" parent="1" source="d7fJOp_VAeOxcwcMYO4r-25" target="d7fJOp_VAeOxcwcMYO4r-52" edge="1">
          <mxGeometry width="50" height="50" relative="1" as="geometry">
            <mxPoint x="309" y="1730" as="sourcePoint" />
            <mxPoint x="359" y="1680" as="targetPoint" />
          </mxGeometry>
        </mxCell>
        <mxCell id="d7fJOp_VAeOxcwcMYO4r-27" value="GET /campagnes" style="edgeLabel;html=1;align=center;verticalAlign=middle;resizable=0;points=[];" parent="d7fJOp_VAeOxcwcMYO4r-26" vertex="1" connectable="0">
          <mxGeometry x="0.0984" y="1" relative="1" as="geometry">
            <mxPoint as="offset" />
          </mxGeometry>
        </mxCell>
        <mxCell id="uCeD7KFE58w6dxspJFez-14" value="" style="endArrow=classic;html=1;rounded=0;exitX=1;exitY=1;exitDx=0;exitDy=-5;exitPerimeter=0;" parent="1" source="uCeD7KFE58w6dxspJFez-8" target="d7fJOp_VAeOxcwcMYO4r-52" edge="1">
          <mxGeometry width="50" height="50" relative="1" as="geometry">
            <mxPoint x="715" y="1720" as="sourcePoint" />
            <mxPoint x="750" y="1670" as="targetPoint" />
          </mxGeometry>
        </mxCell>
        <mxCell id="uCeD7KFE58w6dxspJFez-15" value="" style="endArrow=classic;html=1;rounded=0;" parent="1" target="d7fJOp_VAeOxcwcMYO4r-25" edge="1">
          <mxGeometry width="50" height="50" relative="1" as="geometry">
            <mxPoint x="878" y="1670" as="sourcePoint" />
            <mxPoint x="593" y="1670" as="targetPoint" />
          </mxGeometry>
        </mxCell>
        <mxCell id="uCeD7KFE58w6dxspJFez-19" value="200 Ok" style="edgeLabel;html=1;align=center;verticalAlign=middle;resizable=0;points=[];" parent="uCeD7KFE58w6dxspJFez-15" vertex="1" connectable="0">
          <mxGeometry x="0.3862" relative="1" as="geometry">
            <mxPoint as="offset" />
          </mxGeometry>
        </mxCell>
        <mxCell id="RSGCzld2MX8THleIhDVx-2" value="" style="endArrow=none;dashed=1;html=1;strokeWidth=1;rounded=0;" parent="1" target="RSGCzld2MX8THleIhDVx-1" edge="1">
          <mxGeometry width="50" height="50" relative="1" as="geometry">
            <mxPoint x="104" y="2386" as="sourcePoint" />
            <mxPoint x="104" y="1606" as="targetPoint" />
          </mxGeometry>
        </mxCell>
        <mxCell id="RSGCzld2MX8THleIhDVx-1" value="Demande une autorisation de vote" style="ellipse;whiteSpace=wrap;html=1;fontFamily=Comic Sans MS;" parent="1" vertex="1">
          <mxGeometry x="44" y="1722" width="120" height="80" as="geometry" />
        </mxCell>
        <mxCell id="RSGCzld2MX8THleIhDVx-4" value="" style="html=1;points=[[0,0,0,0,5],[0,1,0,0,-5],[1,0,0,0,5],[1,1,0,0,-5]];perimeter=orthogonalPerimeter;outlineConnect=0;targetShapes=umlLifeline;portConstraint=eastwest;newEdgeStyle={&quot;curved&quot;:0,&quot;rounded&quot;:0};" parent="1" vertex="1">
          <mxGeometry x="884" y="2034" width="10" height="70" as="geometry" />
        </mxCell>
        <mxCell id="RSGCzld2MX8THleIhDVx-5" value="" style="endArrow=classic;html=1;rounded=0;" parent="1" edge="1">
          <mxGeometry width="50" height="50" relative="1" as="geometry">
            <mxPoint x="895" y="2045" as="sourcePoint" />
            <mxPoint x="1069" y="2045" as="targetPoint" />
          </mxGeometry>
        </mxCell>
        <mxCell id="RSGCzld2MX8THleIhDVx-6" value="INSERT demande" style="edgeLabel;html=1;align=center;verticalAlign=middle;resizable=0;points=[];" parent="RSGCzld2MX8THleIhDVx-5" vertex="1" connectable="0">
          <mxGeometry x="0.0028" y="-2" relative="1" as="geometry">
            <mxPoint x="-3" y="13" as="offset" />
          </mxGeometry>
        </mxCell>
        <mxCell id="RSGCzld2MX8THleIhDVx-7" value="" style="endArrow=classic;html=1;rounded=0;" parent="1" edge="1">
          <mxGeometry width="50" height="50" relative="1" as="geometry">
            <mxPoint x="1069" y="2071" as="sourcePoint" />
            <mxPoint x="894" y="2071" as="targetPoint" />
          </mxGeometry>
        </mxCell>
        <mxCell id="toB4cs1xJvQMzXze2Dv2-1" value="Bus de communication queue: send-demande" style="shape=cylinder3;whiteSpace=wrap;html=1;boundedLbl=1;backgroundOutline=1;size=15;fontFamily=Comic Sans MS;rotation=90;horizontal=0;verticalAlign=top;fontStyle=1;fillColor=#f8cecc;strokeColor=#b85450;" parent="1" vertex="1">
          <mxGeometry x="682" y="1966" width="30" height="480" as="geometry" />
        </mxCell>
        <mxCell id="toB4cs1xJvQMzXze2Dv2-2" value="" style="endArrow=classic;html=1;rounded=0;exitX=1;exitY=1;exitDx=0;exitDy=-5;exitPerimeter=0;entryX=-0.083;entryY=0.094;entryDx=0;entryDy=0;entryPerimeter=0;curved=1;" parent="1" source="RSGCzld2MX8THleIhDVx-4" target="toB4cs1xJvQMzXze2Dv2-1" edge="1">
          <mxGeometry width="50" height="50" relative="1" as="geometry">
            <mxPoint x="630" y="1876" as="sourcePoint" />
            <mxPoint x="680" y="1826" as="targetPoint" />
            <Array as="points">
              <mxPoint x="911" y="2136" />
            </Array>
          </mxGeometry>
        </mxCell>
        <mxCell id="toB4cs1xJvQMzXze2Dv2-3" value="send demande" style="text;html=1;strokeColor=none;fillColor=none;align=center;verticalAlign=middle;whiteSpace=wrap;rounded=0;fontFamily=Comic Sans MS;fontStyle=2" parent="1" vertex="1">
          <mxGeometry x="899" y="2121" width="100" height="30" as="geometry" />
        </mxCell>
        <mxCell id="toB4cs1xJvQMzXze2Dv2-5" value="" style="endArrow=classic;html=1;rounded=0;exitX=0.5;exitY=1;exitDx=0;exitDy=0;exitPerimeter=0;curved=1;entryX=0;entryY=0;entryDx=0;entryDy=5;entryPerimeter=0;" parent="1" source="toB4cs1xJvQMzXze2Dv2-1" target="toB4cs1xJvQMzXze2Dv2-4" edge="1">
          <mxGeometry width="50" height="50" relative="1" as="geometry">
            <mxPoint x="448" y="2258" as="sourcePoint" />
            <mxPoint x="446" y="2316" as="targetPoint" />
            <Array as="points">
              <mxPoint x="420" y="2246" />
            </Array>
          </mxGeometry>
        </mxCell>
        <mxCell id="toB4cs1xJvQMzXze2Dv2-6" value="listen demande" style="text;html=1;strokeColor=none;fillColor=none;align=center;verticalAlign=middle;whiteSpace=wrap;rounded=0;fontFamily=Comic Sans MS;fontStyle=2" parent="1" vertex="1">
          <mxGeometry x="350" y="2206" width="100" height="30" as="geometry" />
        </mxCell>
        <mxCell id="toB4cs1xJvQMzXze2Dv2-8" value="" style="endArrow=classic;html=1;rounded=0;" parent="1" edge="1">
          <mxGeometry width="50" height="50" relative="1" as="geometry">
            <mxPoint x="510" y="2256" as="sourcePoint" />
            <mxPoint x="684" y="2256" as="targetPoint" />
          </mxGeometry>
        </mxCell>
        <mxCell id="toB4cs1xJvQMzXze2Dv2-9" value="INSERT demande" style="edgeLabel;html=1;align=center;verticalAlign=middle;resizable=0;points=[];" parent="toB4cs1xJvQMzXze2Dv2-8" vertex="1" connectable="0">
          <mxGeometry x="0.0028" y="-2" relative="1" as="geometry">
            <mxPoint as="offset" />
          </mxGeometry>
        </mxCell>
        <mxCell id="toB4cs1xJvQMzXze2Dv2-10" value="" style="endArrow=classic;html=1;rounded=0;" parent="1" edge="1">
          <mxGeometry width="50" height="50" relative="1" as="geometry">
            <mxPoint x="685" y="2277" as="sourcePoint" />
            <mxPoint x="510" y="2277" as="targetPoint" />
          </mxGeometry>
        </mxCell>
        <mxCell id="2TgRXVBAas8NsS6Qx9n8-1" value="Gestionnaire&lt;br&gt;de campagne" style="shape=umlActor;verticalLabelPosition=bottom;verticalAlign=top;html=1;outlineConnect=0;fontFamily=Comic Sans MS;fontStyle=1" parent="1" vertex="1">
          <mxGeometry x="270" y="1340" width="30" height="60" as="geometry" />
        </mxCell>
        <mxCell id="2TgRXVBAas8NsS6Qx9n8-2" value="" style="endArrow=none;dashed=1;html=1;strokeWidth=1;rounded=0;" parent="1" source="0cXi38JWvtTSrgW7rISy-2" edge="1">
          <mxGeometry width="50" height="50" relative="1" as="geometry">
            <mxPoint x="280" y="2280" as="sourcePoint" />
            <mxPoint x="280" y="1450" as="targetPoint" />
          </mxGeometry>
        </mxCell>
        <mxCell id="0cXi38JWvtTSrgW7rISy-1" value="Valider/Refuser une autorisation de vote" style="ellipse;whiteSpace=wrap;html=1;fontFamily=Comic Sans MS;" parent="1" vertex="1">
          <mxGeometry x="200" y="2326" width="166" height="80" as="geometry" />
        </mxCell>
        <mxCell id="0cXi38JWvtTSrgW7rISy-3" value="" style="endArrow=none;dashed=1;html=1;strokeWidth=1;rounded=0;" parent="1" target="0cXi38JWvtTSrgW7rISy-2" edge="1">
          <mxGeometry width="50" height="50" relative="1" as="geometry">
            <mxPoint x="280" y="2796" as="sourcePoint" />
            <mxPoint x="280" y="1686" as="targetPoint" />
          </mxGeometry>
        </mxCell>
        <mxCell id="0cXi38JWvtTSrgW7rISy-2" value="" style="html=1;points=[[0,0,0,0,5],[0,1,0,0,-5],[1,0,0,0,5],[1,1,0,0,-5]];perimeter=orthogonalPerimeter;outlineConnect=0;targetShapes=umlLifeline;portConstraint=eastwest;newEdgeStyle={&quot;curved&quot;:0,&quot;rounded&quot;:0};" parent="1" vertex="1">
          <mxGeometry x="275" y="2419" width="10" height="50" as="geometry" />
        </mxCell>
        <mxCell id="0cXi38JWvtTSrgW7rISy-5" value="" style="endArrow=classic;html=1;rounded=0;exitX=1;exitY=0;exitDx=0;exitDy=5;exitPerimeter=0;" parent="1" target="0cXi38JWvtTSrgW7rISy-4" edge="1">
          <mxGeometry width="50" height="50" relative="1" as="geometry">
            <mxPoint x="285" y="2436" as="sourcePoint" />
            <mxPoint x="1059" y="2436" as="targetPoint" />
          </mxGeometry>
        </mxCell>
        <mxCell id="0cXi38JWvtTSrgW7rISy-6" value="PUT /autorisation/demandes/:demandeId" style="edgeLabel;html=1;align=center;verticalAlign=middle;resizable=0;points=[];" parent="0cXi38JWvtTSrgW7rISy-5" vertex="1" connectable="0">
          <mxGeometry x="0.0984" y="1" relative="1" as="geometry">
            <mxPoint x="-11" y="1" as="offset" />
          </mxGeometry>
        </mxCell>
        <mxCell id="0cXi38JWvtTSrgW7rISy-8" value="" style="endArrow=classic;html=1;rounded=0;" parent="1" edge="1">
          <mxGeometry width="50" height="50" relative="1" as="geometry">
            <mxPoint x="512" y="2446" as="sourcePoint" />
            <mxPoint x="686" y="2446" as="targetPoint" />
          </mxGeometry>
        </mxCell>
        <mxCell id="0cXi38JWvtTSrgW7rISy-9" value="SELECT demande" style="edgeLabel;html=1;align=center;verticalAlign=middle;resizable=0;points=[];" parent="0cXi38JWvtTSrgW7rISy-8" vertex="1" connectable="0">
          <mxGeometry x="0.0028" y="-2" relative="1" as="geometry">
            <mxPoint as="offset" />
          </mxGeometry>
        </mxCell>
        <mxCell id="0cXi38JWvtTSrgW7rISy-10" value="" style="endArrow=classic;html=1;rounded=0;" parent="1" edge="1">
          <mxGeometry width="50" height="50" relative="1" as="geometry">
            <mxPoint x="687" y="2467" as="sourcePoint" />
            <mxPoint x="512" y="2467" as="targetPoint" />
          </mxGeometry>
        </mxCell>
        <mxCell id="0cXi38JWvtTSrgW7rISy-12" value="" style="endArrow=classic;html=1;rounded=0;" parent="1" edge="1">
          <mxGeometry width="50" height="50" relative="1" as="geometry">
            <mxPoint x="512" y="2496" as="sourcePoint" />
            <mxPoint x="686" y="2496" as="targetPoint" />
          </mxGeometry>
        </mxCell>
        <mxCell id="0cXi38JWvtTSrgW7rISy-13" value="INSERT autorisation" style="edgeLabel;html=1;align=center;verticalAlign=middle;resizable=0;points=[];" parent="0cXi38JWvtTSrgW7rISy-12" vertex="1" connectable="0">
          <mxGeometry x="0.0028" y="-2" relative="1" as="geometry">
            <mxPoint as="offset" />
          </mxGeometry>
        </mxCell>
        <mxCell id="0cXi38JWvtTSrgW7rISy-14" value="" style="endArrow=classic;html=1;rounded=0;" parent="1" edge="1">
          <mxGeometry width="50" height="50" relative="1" as="geometry">
            <mxPoint x="687" y="2517" as="sourcePoint" />
            <mxPoint x="512" y="2517" as="targetPoint" />
          </mxGeometry>
        </mxCell>
        <mxCell id="0cXi38JWvtTSrgW7rISy-15" value="" style="endArrow=classic;html=1;rounded=0;" parent="1" edge="1">
          <mxGeometry width="50" height="50" relative="1" as="geometry">
            <mxPoint x="512" y="2546" as="sourcePoint" />
            <mxPoint x="686" y="2546" as="targetPoint" />
          </mxGeometry>
        </mxCell>
        <mxCell id="0cXi38JWvtTSrgW7rISy-16" value="DELETE demande" style="edgeLabel;html=1;align=center;verticalAlign=middle;resizable=0;points=[];" parent="0cXi38JWvtTSrgW7rISy-15" vertex="1" connectable="0">
          <mxGeometry x="0.0028" y="-2" relative="1" as="geometry">
            <mxPoint as="offset" />
          </mxGeometry>
        </mxCell>
        <mxCell id="0cXi38JWvtTSrgW7rISy-17" value="" style="endArrow=classic;html=1;rounded=0;" parent="1" edge="1">
          <mxGeometry width="50" height="50" relative="1" as="geometry">
            <mxPoint x="687" y="2567" as="sourcePoint" />
            <mxPoint x="512" y="2567" as="targetPoint" />
          </mxGeometry>
        </mxCell>
        <mxCell id="0cXi38JWvtTSrgW7rISy-18" value="Bus de communication queue: send-autorisation" style="shape=cylinder3;whiteSpace=wrap;html=1;boundedLbl=1;backgroundOutline=1;size=15;fontFamily=Comic Sans MS;rotation=90;horizontal=0;verticalAlign=top;fontStyle=1;fillColor=#f8cecc;strokeColor=#b85450;" parent="1" vertex="1">
          <mxGeometry x="652" y="2419" width="30" height="480" as="geometry" />
        </mxCell>
        <mxCell id="0cXi38JWvtTSrgW7rISy-19" value="" style="endArrow=classic;html=1;rounded=0;exitX=0.5;exitY=1;exitDx=0;exitDy=0;exitPerimeter=0;curved=1;entryX=0.067;entryY=0.946;entryDx=0;entryDy=0;entryPerimeter=0;" parent="1" target="0cXi38JWvtTSrgW7rISy-18" edge="1">
          <mxGeometry width="50" height="50" relative="1" as="geometry">
            <mxPoint x="507" y="2606" as="sourcePoint" />
            <mxPoint x="547" y="2641" as="targetPoint" />
            <Array as="points">
              <mxPoint x="430" y="2586" />
            </Array>
          </mxGeometry>
        </mxCell>
        <mxCell id="0cXi38JWvtTSrgW7rISy-20" value="send autorisation" style="text;html=1;strokeColor=none;fillColor=none;align=center;verticalAlign=middle;whiteSpace=wrap;rounded=0;fontFamily=Comic Sans MS;fontStyle=2" parent="1" vertex="1">
          <mxGeometry x="340" y="2596" width="100" height="30" as="geometry" />
        </mxCell>
        <mxCell id="0cXi38JWvtTSrgW7rISy-21" value="" style="html=1;points=[[0,0,0,0,5],[0,1,0,0,-5],[1,0,0,0,5],[1,1,0,0,-5]];perimeter=orthogonalPerimeter;outlineConnect=0;targetShapes=umlLifeline;portConstraint=eastwest;newEdgeStyle={&quot;curved&quot;:0,&quot;rounded&quot;:0};" parent="1" vertex="1">
          <mxGeometry x="823" y="2696" width="10" height="200" as="geometry" />
        </mxCell>
        <mxCell id="0cXi38JWvtTSrgW7rISy-22" value="" style="endArrow=classic;html=1;rounded=0;curved=1;" parent="1" target="0cXi38JWvtTSrgW7rISy-21" edge="1">
          <mxGeometry width="50" height="50" relative="1" as="geometry">
            <mxPoint x="870" y="2676" as="sourcePoint" />
            <mxPoint x="870" y="2724" as="targetPoint" />
            <Array as="points">
              <mxPoint x="908" y="2681" />
            </Array>
          </mxGeometry>
        </mxCell>
        <mxCell id="0cXi38JWvtTSrgW7rISy-23" value="listen autorisation" style="text;html=1;strokeColor=none;fillColor=none;align=center;verticalAlign=middle;whiteSpace=wrap;rounded=0;fontFamily=Comic Sans MS;fontStyle=2" parent="1" vertex="1">
          <mxGeometry x="884" y="2676" width="100" height="30" as="geometry" />
        </mxCell>
        <mxCell id="0cXi38JWvtTSrgW7rISy-24" value="" style="html=1;points=[[0,0,0,0,5],[0,1,0,0,-5],[1,0,0,0,5],[1,1,0,0,-5]];perimeter=orthogonalPerimeter;outlineConnect=0;targetShapes=umlLifeline;portConstraint=eastwest;newEdgeStyle={&quot;curved&quot;:0,&quot;rounded&quot;:0};" parent="1" vertex="1">
          <mxGeometry x="827" y="2716" width="10" height="170" as="geometry" />
        </mxCell>
        <mxCell id="0cXi38JWvtTSrgW7rISy-27" value="" style="endArrow=classic;html=1;rounded=0;" parent="1" edge="1">
          <mxGeometry width="50" height="50" relative="1" as="geometry">
            <mxPoint x="1072.5" y="2755.9999999999995" as="sourcePoint" />
            <mxPoint x="837" y="2756" as="targetPoint" />
          </mxGeometry>
        </mxCell>
        <mxCell id="0cXi38JWvtTSrgW7rISy-28" value="" style="endArrow=classic;html=1;rounded=0;" parent="1" edge="1">
          <mxGeometry width="50" height="50" relative="1" as="geometry">
            <mxPoint x="837" y="2736" as="sourcePoint" />
            <mxPoint x="1072.5" y="2735.9999999999995" as="targetPoint" />
          </mxGeometry>
        </mxCell>
        <mxCell id="0cXi38JWvtTSrgW7rISy-29" value="SELECT demande" style="edgeLabel;html=1;align=center;verticalAlign=middle;resizable=0;points=[];" parent="0cXi38JWvtTSrgW7rISy-28" vertex="1" connectable="0">
          <mxGeometry x="0.0028" y="-2" relative="1" as="geometry">
            <mxPoint as="offset" />
          </mxGeometry>
        </mxCell>
        <mxCell id="0cXi38JWvtTSrgW7rISy-30" value="" style="endArrow=classic;html=1;rounded=0;" parent="1" target="0cXi38JWvtTSrgW7rISy-25" edge="1">
          <mxGeometry width="50" height="50" relative="1" as="geometry">
            <mxPoint x="837" y="2786" as="sourcePoint" />
            <mxPoint x="1011" y="2786" as="targetPoint" />
          </mxGeometry>
        </mxCell>
        <mxCell id="0cXi38JWvtTSrgW7rISy-31" value="INSERT autorisation" style="edgeLabel;html=1;align=center;verticalAlign=middle;resizable=0;points=[];" parent="0cXi38JWvtTSrgW7rISy-30" vertex="1" connectable="0">
          <mxGeometry x="0.0028" y="-2" relative="1" as="geometry">
            <mxPoint as="offset" />
          </mxGeometry>
        </mxCell>
        <mxCell id="0cXi38JWvtTSrgW7rISy-32" value="" style="endArrow=classic;html=1;rounded=0;" parent="1" edge="1">
          <mxGeometry width="50" height="50" relative="1" as="geometry">
            <mxPoint x="1072.5" y="2807.0000000000005" as="sourcePoint" />
            <mxPoint x="837" y="2807" as="targetPoint" />
          </mxGeometry>
        </mxCell>
        <mxCell id="0cXi38JWvtTSrgW7rISy-34" value="" style="endArrow=classic;html=1;rounded=0;" parent="1" edge="1">
          <mxGeometry width="50" height="50" relative="1" as="geometry">
            <mxPoint x="1072.5" y="2855" as="sourcePoint" />
            <mxPoint x="833" y="2855" as="targetPoint" />
          </mxGeometry>
        </mxCell>
        <mxCell id="0cXi38JWvtTSrgW7rISy-35" value="" style="endArrow=classic;html=1;rounded=0;" parent="1" edge="1">
          <mxGeometry width="50" height="50" relative="1" as="geometry">
            <mxPoint x="837" y="2840.5" as="sourcePoint" />
            <mxPoint x="1072.5" y="2840.5" as="targetPoint" />
          </mxGeometry>
        </mxCell>
        <mxCell id="0cXi38JWvtTSrgW7rISy-36" value="DELETE demande" style="edgeLabel;html=1;align=center;verticalAlign=middle;resizable=0;points=[];" parent="0cXi38JWvtTSrgW7rISy-35" vertex="1" connectable="0">
          <mxGeometry x="0.0028" y="-2" relative="1" as="geometry">
            <mxPoint as="offset" />
          </mxGeometry>
        </mxCell>
        <object label="acteurs intermédiaires" id="iPblKy09mUHJfyRKvofy-1">
          <mxCell parent="0" />
        </object>
        <mxCell id="iPblKy09mUHJfyRKvofy-16" value="" style="rounded=0;whiteSpace=wrap;html=1;strokeColor=none;" vertex="1" parent="iPblKy09mUHJfyRKvofy-1">
          <mxGeometry x="44" y="1807" width="87" height="98" as="geometry" />
        </mxCell>
        <mxCell id="iPblKy09mUHJfyRKvofy-2" value="" style="rounded=0;whiteSpace=wrap;html=1;strokeColor=none;" vertex="1" parent="iPblKy09mUHJfyRKvofy-1">
          <mxGeometry x="222" y="1812" width="120" height="98" as="geometry" />
        </mxCell>
        <mxCell id="iPblKy09mUHJfyRKvofy-3" value="Gestionnaire&lt;br&gt;de campagne" style="shape=umlActor;verticalLabelPosition=bottom;verticalAlign=top;html=1;outlineConnect=0;fontFamily=Comic Sans MS;fontStyle=1" vertex="1" parent="iPblKy09mUHJfyRKvofy-1">
          <mxGeometry x="267" y="1819" width="30" height="60" as="geometry" />
        </mxCell>
        <mxCell id="iPblKy09mUHJfyRKvofy-4" value="" style="rounded=0;whiteSpace=wrap;html=1;strokeColor=none;" vertex="1" parent="iPblKy09mUHJfyRKvofy-1">
          <mxGeometry x="445" y="1812" width="120" height="78" as="geometry" />
        </mxCell>
        <mxCell id="iPblKy09mUHJfyRKvofy-12" value="admin-service" style="rounded=0;whiteSpace=wrap;html=1;" vertex="1" parent="iPblKy09mUHJfyRKvofy-1">
          <mxGeometry x="445" y="1830" width="120" height="60" as="geometry" />
        </mxCell>
        <mxCell id="iPblKy09mUHJfyRKvofy-13" value="admin-service&lt;br&gt;DB" style="rounded=0;whiteSpace=wrap;html=1;" vertex="1" parent="iPblKy09mUHJfyRKvofy-1">
          <mxGeometry x="629" y="1830" width="120" height="60" as="geometry" />
        </mxCell>
        <mxCell id="iPblKy09mUHJfyRKvofy-14" value="voting-service" style="rounded=0;whiteSpace=wrap;html=1;" vertex="1" parent="iPblKy09mUHJfyRKvofy-1">
          <mxGeometry x="821" y="1830" width="120" height="60" as="geometry" />
        </mxCell>
        <mxCell id="iPblKy09mUHJfyRKvofy-15" value="Votant" style="shape=umlActor;verticalLabelPosition=bottom;verticalAlign=top;html=1;outlineConnect=0;fontFamily=Comic Sans MS;fontStyle=1" vertex="1" parent="iPblKy09mUHJfyRKvofy-1">
          <mxGeometry x="92" y="1821" width="30" height="60" as="geometry" />
        </mxCell>
        <mxCell id="iPblKy09mUHJfyRKvofy-18" value="voting-service&lt;br&gt;DB" style="rounded=0;whiteSpace=wrap;html=1;" vertex="1" parent="iPblKy09mUHJfyRKvofy-1">
          <mxGeometry x="1014" y="1830" width="120" height="60" as="geometry" />
        </mxCell>
        <mxCell id="iPblKy09mUHJfyRKvofy-22" value="" style="endArrow=classic;html=1;rounded=0;entryX=1;entryY=0;entryDx=0;entryDy=5;entryPerimeter=0;" edge="1" parent="iPblKy09mUHJfyRKvofy-1" source="iPblKy09mUHJfyRKvofy-20" target="iPblKy09mUHJfyRKvofy-21">
          <mxGeometry width="50" height="50" relative="1" as="geometry">
            <mxPoint x="889.5" y="2111" as="sourcePoint" />
            <mxPoint x="116" y="2111" as="targetPoint" />
          </mxGeometry>
        </mxCell>
        <mxCell id="iPblKy09mUHJfyRKvofy-23" value="GET /demande/:id" style="edgeLabel;html=1;align=center;verticalAlign=middle;resizable=0;points=[];" vertex="1" connectable="0" parent="iPblKy09mUHJfyRKvofy-22">
          <mxGeometry x="-0.0498" y="-2" relative="1" as="geometry">
            <mxPoint as="offset" />
          </mxGeometry>
        </mxCell>
        <mxCell id="iPblKy09mUHJfyRKvofy-24" value="" style="endArrow=classic;html=1;rounded=0;" edge="1" parent="iPblKy09mUHJfyRKvofy-1" target="iPblKy09mUHJfyRKvofy-20">
          <mxGeometry width="50" height="50" relative="1" as="geometry">
            <mxPoint x="509" y="1981" as="sourcePoint" />
            <mxPoint x="642" y="1985" as="targetPoint" />
          </mxGeometry>
        </mxCell>
        <mxCell id="iPblKy09mUHJfyRKvofy-25" value="200 Ok" style="edgeLabel;html=1;align=center;verticalAlign=middle;resizable=0;points=[];" vertex="1" connectable="0" parent="iPblKy09mUHJfyRKvofy-24">
          <mxGeometry x="0.0028" y="-2" relative="1" as="geometry">
            <mxPoint as="offset" />
          </mxGeometry>
        </mxCell>
      </root>
    </mxGraphModel>
  </diagram>
  <diagram id="m-tbBpPg28D4aPsjKSk4" name="dépendances">
    <mxGraphModel dx="979" dy="743" grid="1" gridSize="10" guides="1" tooltips="1" connect="1" arrows="1" fold="1" page="1" pageScale="1" pageWidth="827" pageHeight="1169" math="0" shadow="0">
      <root>
        <mxCell id="0" />
        <mxCell id="1" parent="0" />
        <mxCell id="wzphHEt236n3xZPL4nCn-1" value="api" style="rounded=0;whiteSpace=wrap;html=1;" vertex="1" parent="1">
          <mxGeometry x="354" y="130" width="120" height="60" as="geometry" />
        </mxCell>
        <mxCell id="wzphHEt236n3xZPL4nCn-2" value="service" style="rounded=0;whiteSpace=wrap;html=1;" vertex="1" parent="1">
          <mxGeometry x="354" y="240" width="120" height="60" as="geometry" />
        </mxCell>
        <mxCell id="wzphHEt236n3xZPL4nCn-3" value="repository" style="rounded=0;whiteSpace=wrap;html=1;" vertex="1" parent="1">
          <mxGeometry x="260" y="410" width="120" height="60" as="geometry" />
        </mxCell>
        <mxCell id="wzphHEt236n3xZPL4nCn-4" value="jms" style="rounded=0;whiteSpace=wrap;html=1;" vertex="1" parent="1">
          <mxGeometry x="450" y="410" width="120" height="60" as="geometry" />
        </mxCell>
        <mxCell id="wzphHEt236n3xZPL4nCn-8" value="shared" style="rounded=0;whiteSpace=wrap;html=1;" vertex="1" parent="1">
          <mxGeometry x="80" y="240" width="120" height="60" as="geometry" />
        </mxCell>
        <mxCell id="wzphHEt236n3xZPL4nCn-64" value="configuration" style="rounded=0;whiteSpace=wrap;html=1;" vertex="1" parent="1">
          <mxGeometry x="650" y="250" width="120" height="60" as="geometry" />
        </mxCell>
        <mxCell id="wzphHEt236n3xZPL4nCn-72" value="&lt;h1&gt;admin-service&lt;/h1&gt;&lt;p&gt;&lt;br&gt;&lt;/p&gt;" style="text;html=1;strokeColor=none;fillColor=none;spacing=5;spacingTop=-20;whiteSpace=wrap;overflow=hidden;rounded=0;" vertex="1" parent="1">
          <mxGeometry x="30" y="20" width="190" height="120" as="geometry" />
        </mxCell>
        <mxCell id="wzphHEt236n3xZPL4nCn-73" value="api" style="rounded=0;whiteSpace=wrap;html=1;" vertex="1" parent="1">
          <mxGeometry x="344" y="670" width="120" height="60" as="geometry" />
        </mxCell>
        <mxCell id="wzphHEt236n3xZPL4nCn-74" value="service" style="rounded=0;whiteSpace=wrap;html=1;" vertex="1" parent="1">
          <mxGeometry x="344" y="780" width="120" height="60" as="geometry" />
        </mxCell>
        <mxCell id="wzphHEt236n3xZPL4nCn-75" value="repository" style="rounded=0;whiteSpace=wrap;html=1;" vertex="1" parent="1">
          <mxGeometry x="344" y="950" width="120" height="60" as="geometry" />
        </mxCell>
        <mxCell id="wzphHEt236n3xZPL4nCn-76" value="jms" style="rounded=0;whiteSpace=wrap;html=1;" vertex="1" parent="1">
          <mxGeometry x="534" y="950" width="120" height="60" as="geometry" />
        </mxCell>
        <mxCell id="wzphHEt236n3xZPL4nCn-77" value="shared" style="rounded=0;whiteSpace=wrap;html=1;" vertex="1" parent="1">
          <mxGeometry x="70" y="780" width="120" height="60" as="geometry" />
        </mxCell>
        <mxCell id="wzphHEt236n3xZPL4nCn-78" value="configuration" style="rounded=0;whiteSpace=wrap;html=1;" vertex="1" parent="1">
          <mxGeometry x="640" y="790" width="120" height="60" as="geometry" />
        </mxCell>
        <mxCell id="wzphHEt236n3xZPL4nCn-79" value="&lt;h1&gt;voting-service&lt;/h1&gt;&lt;p&gt;&lt;br&gt;&lt;/p&gt;" style="text;html=1;strokeColor=none;fillColor=none;spacing=5;spacingTop=-20;whiteSpace=wrap;overflow=hidden;rounded=0;" vertex="1" parent="1">
          <mxGeometry x="20" y="560" width="190" height="120" as="geometry" />
        </mxCell>
        <mxCell id="wzphHEt236n3xZPL4nCn-80" value="remote" style="rounded=0;whiteSpace=wrap;html=1;" vertex="1" parent="1">
          <mxGeometry x="174" y="950" width="120" height="60" as="geometry" />
        </mxCell>
        <object label="dep-autorisees" id="wzphHEt236n3xZPL4nCn-26">
          <mxCell parent="0" visible="0" />
        </object>
        <mxCell id="wzphHEt236n3xZPL4nCn-28" value="" style="endArrow=classic;html=1;rounded=0;exitX=0.5;exitY=1;exitDx=0;exitDy=0;fillColor=#d5e8d4;strokeColor=#82b366;strokeWidth=3;" edge="1" parent="wzphHEt236n3xZPL4nCn-26">
          <mxGeometry width="50" height="50" relative="1" as="geometry">
            <mxPoint x="414" y="190" as="sourcePoint" />
            <mxPoint x="414" y="240" as="targetPoint" />
          </mxGeometry>
        </mxCell>
        <mxCell id="wzphHEt236n3xZPL4nCn-29" value="" style="endArrow=classic;html=1;rounded=0;exitX=0.5;exitY=1;exitDx=0;exitDy=0;entryX=0.5;entryY=0;entryDx=0;entryDy=0;fillColor=#d5e8d4;strokeColor=#82b366;strokeWidth=3;" edge="1" parent="wzphHEt236n3xZPL4nCn-26" target="wzphHEt236n3xZPL4nCn-3">
          <mxGeometry width="50" height="50" relative="1" as="geometry">
            <mxPoint x="414" y="300" as="sourcePoint" />
            <mxPoint x="350" y="410" as="targetPoint" />
          </mxGeometry>
        </mxCell>
        <mxCell id="wzphHEt236n3xZPL4nCn-30" value="" style="endArrow=classic;html=1;rounded=0;exitX=0.5;exitY=1;exitDx=0;exitDy=0;entryX=0.5;entryY=0;entryDx=0;entryDy=0;fillColor=#d5e8d4;strokeColor=#82b366;strokeWidth=3;" edge="1" parent="wzphHEt236n3xZPL4nCn-26" target="wzphHEt236n3xZPL4nCn-4">
          <mxGeometry width="50" height="50" relative="1" as="geometry">
            <mxPoint x="414" y="300" as="sourcePoint" />
            <mxPoint x="480" y="410" as="targetPoint" />
          </mxGeometry>
        </mxCell>
        <mxCell id="wzphHEt236n3xZPL4nCn-31" value="" style="endArrow=classic;html=1;rounded=0;exitX=0.5;exitY=1;exitDx=0;exitDy=0;fillColor=#d5e8d4;strokeColor=#82b366;strokeWidth=3;entryX=1;entryY=0.25;entryDx=0;entryDy=0;" edge="1" parent="wzphHEt236n3xZPL4nCn-26" target="wzphHEt236n3xZPL4nCn-8">
          <mxGeometry width="50" height="50" relative="1" as="geometry">
            <mxPoint x="414" y="190" as="sourcePoint" />
            <mxPoint x="200" y="270" as="targetPoint" />
          </mxGeometry>
        </mxCell>
        <mxCell id="wzphHEt236n3xZPL4nCn-32" value="" style="endArrow=classic;html=1;rounded=0;exitX=0;exitY=0.5;exitDx=0;exitDy=0;fillColor=#d5e8d4;strokeColor=#82b366;strokeWidth=3;entryX=1;entryY=0.5;entryDx=0;entryDy=0;" edge="1" parent="wzphHEt236n3xZPL4nCn-26" target="wzphHEt236n3xZPL4nCn-8">
          <mxGeometry width="50" height="50" relative="1" as="geometry">
            <mxPoint x="354" y="270" as="sourcePoint" />
            <mxPoint x="200" y="270" as="targetPoint" />
          </mxGeometry>
        </mxCell>
        <mxCell id="wzphHEt236n3xZPL4nCn-33" value="" style="endArrow=classic;html=1;rounded=0;exitX=0;exitY=0.5;exitDx=0;exitDy=0;entryX=0.75;entryY=1;entryDx=0;entryDy=0;fillColor=#d5e8d4;strokeColor=#82b366;strokeWidth=3;" edge="1" parent="wzphHEt236n3xZPL4nCn-26" target="wzphHEt236n3xZPL4nCn-8">
          <mxGeometry width="50" height="50" relative="1" as="geometry">
            <mxPoint x="260" y="440" as="sourcePoint" />
            <mxPoint x="200" y="270" as="targetPoint" />
          </mxGeometry>
        </mxCell>
        <mxCell id="wzphHEt236n3xZPL4nCn-81" value="" style="endArrow=classic;html=1;rounded=0;exitX=0.5;exitY=1;exitDx=0;exitDy=0;fillColor=#d5e8d4;strokeColor=#82b366;strokeWidth=3;" edge="1" parent="wzphHEt236n3xZPL4nCn-26" source="wzphHEt236n3xZPL4nCn-73" target="wzphHEt236n3xZPL4nCn-74">
          <mxGeometry width="50" height="50" relative="1" as="geometry">
            <mxPoint x="424" y="310" as="sourcePoint" />
            <mxPoint x="490" y="420" as="targetPoint" />
          </mxGeometry>
        </mxCell>
        <mxCell id="wzphHEt236n3xZPL4nCn-82" value="" style="endArrow=classic;html=1;rounded=0;exitX=0.5;exitY=1;exitDx=0;exitDy=0;fillColor=#d5e8d4;strokeColor=#82b366;strokeWidth=3;entryX=0.5;entryY=0;entryDx=0;entryDy=0;" edge="1" parent="wzphHEt236n3xZPL4nCn-26" source="wzphHEt236n3xZPL4nCn-74" target="wzphHEt236n3xZPL4nCn-80">
          <mxGeometry width="50" height="50" relative="1" as="geometry">
            <mxPoint x="414" y="740" as="sourcePoint" />
            <mxPoint x="414" y="790" as="targetPoint" />
          </mxGeometry>
        </mxCell>
        <mxCell id="wzphHEt236n3xZPL4nCn-83" value="" style="endArrow=classic;html=1;rounded=0;exitX=0.5;exitY=1;exitDx=0;exitDy=0;fillColor=#d5e8d4;strokeColor=#82b366;strokeWidth=3;entryX=0.5;entryY=0;entryDx=0;entryDy=0;" edge="1" parent="wzphHEt236n3xZPL4nCn-26" source="wzphHEt236n3xZPL4nCn-74" target="wzphHEt236n3xZPL4nCn-75">
          <mxGeometry width="50" height="50" relative="1" as="geometry">
            <mxPoint x="424" y="750" as="sourcePoint" />
            <mxPoint x="424" y="800" as="targetPoint" />
          </mxGeometry>
        </mxCell>
        <mxCell id="wzphHEt236n3xZPL4nCn-84" value="" style="endArrow=classic;html=1;rounded=0;exitX=0.5;exitY=1;exitDx=0;exitDy=0;fillColor=#d5e8d4;strokeColor=#82b366;strokeWidth=3;entryX=0.5;entryY=0;entryDx=0;entryDy=0;" edge="1" parent="wzphHEt236n3xZPL4nCn-26" source="wzphHEt236n3xZPL4nCn-74" target="wzphHEt236n3xZPL4nCn-76">
          <mxGeometry width="50" height="50" relative="1" as="geometry">
            <mxPoint x="434" y="760" as="sourcePoint" />
            <mxPoint x="434" y="810" as="targetPoint" />
          </mxGeometry>
        </mxCell>
        <mxCell id="wzphHEt236n3xZPL4nCn-85" value="" style="endArrow=classic;html=1;rounded=0;exitX=0;exitY=0.5;exitDx=0;exitDy=0;fillColor=#d5e8d4;strokeColor=#82b366;strokeWidth=3;entryX=1;entryY=0.25;entryDx=0;entryDy=0;" edge="1" parent="wzphHEt236n3xZPL4nCn-26" source="wzphHEt236n3xZPL4nCn-73" target="wzphHEt236n3xZPL4nCn-77">
          <mxGeometry width="50" height="50" relative="1" as="geometry">
            <mxPoint x="444" y="770" as="sourcePoint" />
            <mxPoint x="444" y="820" as="targetPoint" />
          </mxGeometry>
        </mxCell>
        <mxCell id="wzphHEt236n3xZPL4nCn-86" value="" style="endArrow=classic;html=1;rounded=0;exitX=0;exitY=0.5;exitDx=0;exitDy=0;fillColor=#d5e8d4;strokeColor=#82b366;strokeWidth=3;entryX=1;entryY=0.5;entryDx=0;entryDy=0;" edge="1" parent="wzphHEt236n3xZPL4nCn-26" source="wzphHEt236n3xZPL4nCn-74" target="wzphHEt236n3xZPL4nCn-77">
          <mxGeometry width="50" height="50" relative="1" as="geometry">
            <mxPoint x="454" y="780" as="sourcePoint" />
            <mxPoint x="454" y="830" as="targetPoint" />
          </mxGeometry>
        </mxCell>
        <mxCell id="wzphHEt236n3xZPL4nCn-87" value="" style="endArrow=classic;html=1;rounded=0;exitX=0.25;exitY=0;exitDx=0;exitDy=0;fillColor=#d5e8d4;strokeColor=#82b366;strokeWidth=3;entryX=0.5;entryY=1;entryDx=0;entryDy=0;" edge="1" parent="wzphHEt236n3xZPL4nCn-26" source="wzphHEt236n3xZPL4nCn-80" target="wzphHEt236n3xZPL4nCn-77">
          <mxGeometry width="50" height="50" relative="1" as="geometry">
            <mxPoint x="464" y="790" as="sourcePoint" />
            <mxPoint x="190" y="810" as="targetPoint" />
          </mxGeometry>
        </mxCell>
        <mxCell id="wzphHEt236n3xZPL4nCn-88" value="" style="endArrow=classic;html=1;rounded=0;exitX=0.25;exitY=0;exitDx=0;exitDy=0;fillColor=#d5e8d4;strokeColor=#82b366;strokeWidth=3;entryX=0.75;entryY=1;entryDx=0;entryDy=0;" edge="1" parent="wzphHEt236n3xZPL4nCn-26" source="wzphHEt236n3xZPL4nCn-75" target="wzphHEt236n3xZPL4nCn-77">
          <mxGeometry width="50" height="50" relative="1" as="geometry">
            <mxPoint x="214" y="960" as="sourcePoint" />
            <mxPoint x="200" y="820" as="targetPoint" />
          </mxGeometry>
        </mxCell>
        <mxCell id="wzphHEt236n3xZPL4nCn-89" value="" style="endArrow=classic;html=1;rounded=0;exitX=0.25;exitY=0;exitDx=0;exitDy=0;fillColor=#d5e8d4;strokeColor=#82b366;strokeWidth=3;entryX=1;entryY=0.75;entryDx=0;entryDy=0;" edge="1" parent="wzphHEt236n3xZPL4nCn-26" source="wzphHEt236n3xZPL4nCn-76" target="wzphHEt236n3xZPL4nCn-77">
          <mxGeometry width="50" height="50" relative="1" as="geometry">
            <mxPoint x="224" y="970" as="sourcePoint" />
            <mxPoint x="210" y="830" as="targetPoint" />
          </mxGeometry>
        </mxCell>
        <mxCell id="wzphHEt236n3xZPL4nCn-90" value="" style="endArrow=classic;html=1;rounded=0;exitX=0.25;exitY=0;exitDx=0;exitDy=0;fillColor=#d5e8d4;strokeColor=#82b366;strokeWidth=3;entryX=1;entryY=1;entryDx=0;entryDy=0;" edge="1" parent="wzphHEt236n3xZPL4nCn-26" source="wzphHEt236n3xZPL4nCn-4" target="wzphHEt236n3xZPL4nCn-8">
          <mxGeometry width="50" height="50" relative="1" as="geometry">
            <mxPoint x="234" y="980" as="sourcePoint" />
            <mxPoint x="220" y="840" as="targetPoint" />
          </mxGeometry>
        </mxCell>
        <object label="dep-interdites" id="wzphHEt236n3xZPL4nCn-34">
          <mxCell parent="0" />
        </object>
        <mxCell id="wzphHEt236n3xZPL4nCn-53" value="" style="endArrow=classic;html=1;rounded=0;exitX=1;exitY=0.5;exitDx=0;exitDy=0;entryX=0.75;entryY=0;entryDx=0;entryDy=0;curved=1;strokeColor=#FF0000;strokeWidth=3;" edge="1" parent="wzphHEt236n3xZPL4nCn-34">
          <mxGeometry width="50" height="50" relative="1" as="geometry">
            <mxPoint x="474" y="160" as="sourcePoint" />
            <mxPoint x="540" y="410" as="targetPoint" />
            <Array as="points">
              <mxPoint x="650" y="240" />
            </Array>
          </mxGeometry>
        </mxCell>
        <mxCell id="wzphHEt236n3xZPL4nCn-54" value="" style="endArrow=classic;html=1;rounded=0;exitX=0;exitY=0.5;exitDx=0;exitDy=0;entryX=0.25;entryY=0;entryDx=0;entryDy=0;fillColor=#f8cecc;strokeColor=#FF0000;curved=1;strokeWidth=3;" edge="1" parent="wzphHEt236n3xZPL4nCn-34">
          <mxGeometry width="50" height="50" relative="1" as="geometry">
            <mxPoint x="354" y="160" as="sourcePoint" />
            <mxPoint x="290" y="410" as="targetPoint" />
            <Array as="points">
              <mxPoint x="230" y="240" />
            </Array>
          </mxGeometry>
        </mxCell>
        <mxCell id="wzphHEt236n3xZPL4nCn-55" value="" style="endArrow=classic;html=1;rounded=0;exitX=1;exitY=0.5;exitDx=0;exitDy=0;entryX=1;entryY=0.75;entryDx=0;entryDy=0;strokeColor=#FF0000;curved=1;strokeWidth=3;" edge="1" parent="wzphHEt236n3xZPL4nCn-34">
          <mxGeometry width="50" height="50" relative="1" as="geometry">
            <mxPoint x="474" y="270" as="sourcePoint" />
            <mxPoint x="474" y="175" as="targetPoint" />
            <Array as="points">
              <mxPoint x="520" y="220" />
            </Array>
          </mxGeometry>
        </mxCell>
        <mxCell id="wzphHEt236n3xZPL4nCn-56" value="" style="endArrow=classic;html=1;rounded=0;exitX=0.5;exitY=0;exitDx=0;exitDy=0;entryX=0;entryY=0.75;entryDx=0;entryDy=0;strokeColor=#FF0000;curved=1;strokeWidth=3;" edge="1" parent="wzphHEt236n3xZPL4nCn-34">
          <mxGeometry width="50" height="50" relative="1" as="geometry">
            <mxPoint x="320" y="410" as="sourcePoint" />
            <mxPoint x="354" y="285" as="targetPoint" />
            <Array as="points">
              <mxPoint x="310" y="300" />
            </Array>
          </mxGeometry>
        </mxCell>
        <mxCell id="wzphHEt236n3xZPL4nCn-57" value="" style="endArrow=classic;html=1;rounded=0;entryX=0;entryY=0.75;entryDx=0;entryDy=0;curved=1;strokeColor=#FF0000;strokeWidth=3;" edge="1" parent="wzphHEt236n3xZPL4nCn-34">
          <mxGeometry width="50" height="50" relative="1" as="geometry">
            <mxPoint x="320" y="410" as="sourcePoint" />
            <mxPoint x="354" y="175" as="targetPoint" />
            <Array as="points">
              <mxPoint x="300" y="260" />
            </Array>
          </mxGeometry>
        </mxCell>
        <mxCell id="wzphHEt236n3xZPL4nCn-58" value="" style="endArrow=classic;html=1;rounded=0;entryX=0;entryY=0.25;entryDx=0;entryDy=0;exitX=1;exitY=0.25;exitDx=0;exitDy=0;strokeColor=#FF0000;strokeWidth=3;" edge="1" parent="wzphHEt236n3xZPL4nCn-34">
          <mxGeometry width="50" height="50" relative="1" as="geometry">
            <mxPoint x="380" y="425" as="sourcePoint" />
            <mxPoint x="450" y="425" as="targetPoint" />
          </mxGeometry>
        </mxCell>
        <mxCell id="wzphHEt236n3xZPL4nCn-59" value="" style="endArrow=classic;html=1;rounded=0;exitX=0;exitY=0.75;exitDx=0;exitDy=0;entryX=1;entryY=0.75;entryDx=0;entryDy=0;strokeColor=#FF0000;strokeWidth=3;" edge="1" parent="wzphHEt236n3xZPL4nCn-34">
          <mxGeometry width="50" height="50" relative="1" as="geometry">
            <mxPoint x="450" y="455" as="sourcePoint" />
            <mxPoint x="380" y="455" as="targetPoint" />
          </mxGeometry>
        </mxCell>
        <mxCell id="wzphHEt236n3xZPL4nCn-60" value="" style="endArrow=classic;html=1;rounded=0;exitX=0.5;exitY=0;exitDx=0;exitDy=0;entryX=1;entryY=0.75;entryDx=0;entryDy=0;strokeColor=#FF0000;curved=1;strokeWidth=3;" edge="1" parent="wzphHEt236n3xZPL4nCn-34">
          <mxGeometry width="50" height="50" relative="1" as="geometry">
            <mxPoint x="510" y="410" as="sourcePoint" />
            <mxPoint x="474" y="285" as="targetPoint" />
            <Array as="points">
              <mxPoint x="520" y="340" />
            </Array>
          </mxGeometry>
        </mxCell>
        <mxCell id="wzphHEt236n3xZPL4nCn-61" value="" style="endArrow=classic;html=1;rounded=0;exitX=0.5;exitY=0;exitDx=0;exitDy=0;entryX=1;entryY=0.75;entryDx=0;entryDy=0;strokeColor=#FF0000;curved=1;strokeWidth=3;" edge="1" parent="wzphHEt236n3xZPL4nCn-34">
          <mxGeometry width="50" height="50" relative="1" as="geometry">
            <mxPoint x="510" y="410" as="sourcePoint" />
            <mxPoint x="474" y="175" as="targetPoint" />
            <Array as="points">
              <mxPoint x="570" y="250" />
            </Array>
          </mxGeometry>
        </mxCell>
        <mxCell id="wzphHEt236n3xZPL4nCn-66" value="" style="endArrow=classic;html=1;rounded=0;exitX=1;exitY=0.5;exitDx=0;exitDy=0;entryX=0;entryY=0;entryDx=0;entryDy=0;strokeColor=#FF0000;strokeWidth=3;" edge="1" parent="wzphHEt236n3xZPL4nCn-34" source="wzphHEt236n3xZPL4nCn-1" target="wzphHEt236n3xZPL4nCn-64">
          <mxGeometry width="50" height="50" relative="1" as="geometry">
            <mxPoint x="510" y="160" as="sourcePoint" />
            <mxPoint x="560" y="110" as="targetPoint" />
          </mxGeometry>
        </mxCell>
        <mxCell id="wzphHEt236n3xZPL4nCn-67" value="" style="endArrow=classic;html=1;rounded=0;exitX=1;exitY=0.5;exitDx=0;exitDy=0;entryX=0;entryY=0.5;entryDx=0;entryDy=0;strokeColor=#FF0000;strokeWidth=3;" edge="1" parent="wzphHEt236n3xZPL4nCn-34" source="wzphHEt236n3xZPL4nCn-2" target="wzphHEt236n3xZPL4nCn-64">
          <mxGeometry width="50" height="50" relative="1" as="geometry">
            <mxPoint x="484" y="170" as="sourcePoint" />
            <mxPoint x="660" y="260" as="targetPoint" />
          </mxGeometry>
        </mxCell>
        <mxCell id="wzphHEt236n3xZPL4nCn-68" value="" style="endArrow=classic;html=1;rounded=0;exitX=1;exitY=0.5;exitDx=0;exitDy=0;strokeColor=#FF0000;strokeWidth=3;" edge="1" parent="wzphHEt236n3xZPL4nCn-34" source="wzphHEt236n3xZPL4nCn-4">
          <mxGeometry width="50" height="50" relative="1" as="geometry">
            <mxPoint x="494" y="180" as="sourcePoint" />
            <mxPoint x="650" y="310" as="targetPoint" />
          </mxGeometry>
        </mxCell>
        <mxCell id="wzphHEt236n3xZPL4nCn-69" value="" style="endArrow=classic;html=1;rounded=0;exitX=0.5;exitY=1;exitDx=0;exitDy=0;entryX=0.5;entryY=1;entryDx=0;entryDy=0;curved=1;strokeColor=#FF0000;strokeWidth=3;" edge="1" parent="wzphHEt236n3xZPL4nCn-34" source="wzphHEt236n3xZPL4nCn-3" target="wzphHEt236n3xZPL4nCn-64">
          <mxGeometry width="50" height="50" relative="1" as="geometry">
            <mxPoint x="504" y="190" as="sourcePoint" />
            <mxPoint x="680" y="280" as="targetPoint" />
            <Array as="points">
              <mxPoint x="500" y="550" />
              <mxPoint x="660" y="530" />
            </Array>
          </mxGeometry>
        </mxCell>
        <mxCell id="wzphHEt236n3xZPL4nCn-70" value="" style="endArrow=classic;html=1;rounded=0;exitX=0.5;exitY=1;exitDx=0;exitDy=0;entryX=0.5;entryY=1;entryDx=0;entryDy=0;curved=1;strokeColor=#FF0000;strokeWidth=3;" edge="1" parent="wzphHEt236n3xZPL4nCn-34" source="wzphHEt236n3xZPL4nCn-8" target="wzphHEt236n3xZPL4nCn-64">
          <mxGeometry width="50" height="50" relative="1" as="geometry">
            <mxPoint x="510" y="410" as="sourcePoint" />
            <mxPoint x="560" y="360" as="targetPoint" />
            <Array as="points">
              <mxPoint x="140" y="430" />
              <mxPoint x="300" y="640" />
              <mxPoint x="780" y="510" />
            </Array>
          </mxGeometry>
        </mxCell>
        <mxCell id="wzphHEt236n3xZPL4nCn-92" value="" style="endArrow=classic;html=1;rounded=0;exitX=0;exitY=1;exitDx=0;exitDy=0;entryX=0.75;entryY=1;entryDx=0;entryDy=0;curved=1;strokeColor=#FF0000;strokeWidth=3;" edge="1" parent="wzphHEt236n3xZPL4nCn-34" source="wzphHEt236n3xZPL4nCn-77" target="wzphHEt236n3xZPL4nCn-78">
          <mxGeometry width="50" height="50" relative="1" as="geometry">
            <mxPoint x="109" y="840" as="sourcePoint" />
            <mxPoint x="679" y="850" as="targetPoint" />
            <Array as="points">
              <mxPoint x="180" y="1170" />
              <mxPoint x="670" y="1130" />
              <mxPoint x="750" y="1040" />
            </Array>
          </mxGeometry>
        </mxCell>
        <mxCell id="wzphHEt236n3xZPL4nCn-93" value="" style="endArrow=classic;html=1;rounded=0;exitX=0.158;exitY=1;exitDx=0;exitDy=0;curved=1;strokeColor=#FF0000;strokeWidth=3;exitPerimeter=0;" edge="1" parent="wzphHEt236n3xZPL4nCn-34" source="wzphHEt236n3xZPL4nCn-80" target="wzphHEt236n3xZPL4nCn-78">
          <mxGeometry width="50" height="50" relative="1" as="geometry">
            <mxPoint x="250" y="1030" as="sourcePoint" />
            <mxPoint x="640" y="870" as="targetPoint" />
            <Array as="points">
              <mxPoint x="250" y="1140" />
              <mxPoint x="760" y="1120" />
            </Array>
          </mxGeometry>
        </mxCell>
        <mxCell id="wzphHEt236n3xZPL4nCn-94" value="" style="endArrow=classic;html=1;rounded=0;exitX=0.5;exitY=1;exitDx=0;exitDy=0;entryX=0.25;entryY=1;entryDx=0;entryDy=0;curved=1;strokeColor=#FF0000;strokeWidth=3;" edge="1" parent="wzphHEt236n3xZPL4nCn-34" source="wzphHEt236n3xZPL4nCn-4" target="wzphHEt236n3xZPL4nCn-64">
          <mxGeometry width="50" height="50" relative="1" as="geometry">
            <mxPoint x="330" y="480" as="sourcePoint" />
            <mxPoint x="720" y="320" as="targetPoint" />
            <Array as="points">
              <mxPoint x="540" y="520" />
              <mxPoint x="650" y="510" />
            </Array>
          </mxGeometry>
        </mxCell>
      </root>
    </mxGraphModel>
  </diagram>
  <diagram id="oEvNkd1IwxwO1BtfdFwQ" name="architecture">
    <mxGraphModel dx="979" dy="743" grid="1" gridSize="10" guides="1" tooltips="1" connect="1" arrows="1" fold="1" page="1" pageScale="1" pageWidth="827" pageHeight="1169" math="0" shadow="0">
      <root>
        <mxCell id="0" />
        <mxCell id="1" parent="0" />
        <mxCell id="j_XLcCs_vJ3iD7UqQHrh-2" value="Ce que le système fournit (interfaces)" style="text;html=1;strokeColor=none;fillColor=none;align=center;verticalAlign=middle;whiteSpace=wrap;rounded=0;fontFamily=Comic Sans MS;fontSize=20;" vertex="1" parent="1">
          <mxGeometry x="70" y="320" width="150" height="30" as="geometry" />
        </mxCell>
        <mxCell id="j_XLcCs_vJ3iD7UqQHrh-4" value="Ce dont le système à besoin" style="text;html=1;strokeColor=none;fillColor=none;align=center;verticalAlign=middle;whiteSpace=wrap;rounded=0;fontFamily=Comic Sans MS;fontSize=20;" vertex="1" parent="1">
          <mxGeometry x="570" y="320" width="140" height="30" as="geometry" />
        </mxCell>
        <mxCell id="j_XLcCs_vJ3iD7UqQHrh-6" value="" style="shape=hexagon;perimeter=hexagonPerimeter2;whiteSpace=wrap;html=1;fixedSize=1;size=71;" vertex="1" parent="1">
          <mxGeometry x="230" y="200" width="330" height="260" as="geometry" />
        </mxCell>
        <mxCell id="j_XLcCs_vJ3iD7UqQHrh-7" value="Domaine Métier" style="shape=hexagon;perimeter=hexagonPerimeter2;whiteSpace=wrap;html=1;fixedSize=1;size=50;fontFamily=Comic Sans MS;fontSize=19;fillColor=#f5f5f5;fontColor=#333333;strokeColor=#666666;" vertex="1" parent="1">
          <mxGeometry x="285" y="235" width="220" height="190" as="geometry" />
        </mxCell>
        <mxCell id="j_XLcCs_vJ3iD7UqQHrh-8" value="" style="endArrow=none;html=1;rounded=0;entryX=0.5;entryY=0;entryDx=0;entryDy=0;exitX=0.5;exitY=0;exitDx=0;exitDy=0;" edge="1" parent="1" source="j_XLcCs_vJ3iD7UqQHrh-7" target="j_XLcCs_vJ3iD7UqQHrh-6">
          <mxGeometry width="50" height="50" relative="1" as="geometry">
            <mxPoint x="390" y="410" as="sourcePoint" />
            <mxPoint x="440" y="360" as="targetPoint" />
          </mxGeometry>
        </mxCell>
        <mxCell id="j_XLcCs_vJ3iD7UqQHrh-9" value="" style="endArrow=none;html=1;rounded=0;entryX=0.5;entryY=1;entryDx=0;entryDy=0;exitX=0.5;exitY=1;exitDx=0;exitDy=0;" edge="1" parent="1" source="j_XLcCs_vJ3iD7UqQHrh-6" target="j_XLcCs_vJ3iD7UqQHrh-7">
          <mxGeometry width="50" height="50" relative="1" as="geometry">
            <mxPoint x="405" y="245" as="sourcePoint" />
            <mxPoint x="405" y="210" as="targetPoint" />
          </mxGeometry>
        </mxCell>
        <mxCell id="j_XLcCs_vJ3iD7UqQHrh-10" value="API" style="text;html=1;strokeColor=none;fillColor=none;align=center;verticalAlign=middle;whiteSpace=wrap;rounded=0;fontStyle=1;fontFamily=Comic Sans MS;fontSize=18;" vertex="1" parent="1">
          <mxGeometry x="230" y="315" width="60" height="30" as="geometry" />
        </mxCell>
        <mxCell id="j_XLcCs_vJ3iD7UqQHrh-11" value="SPI" style="text;html=1;strokeColor=none;fillColor=none;align=center;verticalAlign=middle;whiteSpace=wrap;rounded=0;fontStyle=1;fontFamily=Comic Sans MS;fontSize=18;" vertex="1" parent="1">
          <mxGeometry x="500" y="315" width="60" height="30" as="geometry" />
        </mxCell>
        <mxCell id="j_XLcCs_vJ3iD7UqQHrh-16" value="HTTP&amp;nbsp;" style="text;html=1;strokeColor=#82b366;fillColor=#d5e8d4;align=center;verticalAlign=middle;whiteSpace=wrap;rounded=0;fontFamily=Comic Sans MS;fontSize=16;rotation=0;" vertex="1" parent="1">
          <mxGeometry x="110" y="170" width="110" height="50" as="geometry" />
        </mxCell>
        <mxCell id="j_XLcCs_vJ3iD7UqQHrh-17" value="JMS&amp;nbsp;" style="text;html=1;strokeColor=#82b366;fillColor=#d5e8d4;align=center;verticalAlign=middle;whiteSpace=wrap;rounded=0;fontFamily=Comic Sans MS;fontSize=16;rotation=0;" vertex="1" parent="1">
          <mxGeometry x="110" y="430" width="110" height="50" as="geometry" />
        </mxCell>
        <mxCell id="j_XLcCs_vJ3iD7UqQHrh-18" value="SQL" style="text;html=1;strokeColor=#6c8ebf;fillColor=#dae8fc;align=center;verticalAlign=middle;whiteSpace=wrap;rounded=0;fontFamily=Comic Sans MS;fontSize=16;rotation=0;" vertex="1" parent="1">
          <mxGeometry x="600" y="170" width="110" height="50" as="geometry" />
        </mxCell>
        <mxCell id="j_XLcCs_vJ3iD7UqQHrh-19" value="JMS" style="text;html=1;strokeColor=#6c8ebf;fillColor=#dae8fc;align=center;verticalAlign=middle;whiteSpace=wrap;rounded=0;fontFamily=Comic Sans MS;fontSize=16;rotation=0;" vertex="1" parent="1">
          <mxGeometry x="600" y="425" width="110" height="50" as="geometry" />
        </mxCell>
        <mxCell id="j_XLcCs_vJ3iD7UqQHrh-20" value="" style="endArrow=classic;html=1;rounded=0;exitX=1;exitY=0.5;exitDx=0;exitDy=0;" edge="1" parent="1" source="j_XLcCs_vJ3iD7UqQHrh-16" target="j_XLcCs_vJ3iD7UqQHrh-6">
          <mxGeometry width="50" height="50" relative="1" as="geometry">
            <mxPoint x="390" y="410" as="sourcePoint" />
            <mxPoint x="440" y="360" as="targetPoint" />
          </mxGeometry>
        </mxCell>
        <mxCell id="j_XLcCs_vJ3iD7UqQHrh-21" value="" style="endArrow=classic;html=1;rounded=0;exitX=1;exitY=0.5;exitDx=0;exitDy=0;" edge="1" parent="1" source="j_XLcCs_vJ3iD7UqQHrh-17" target="j_XLcCs_vJ3iD7UqQHrh-6">
          <mxGeometry width="50" height="50" relative="1" as="geometry">
            <mxPoint x="390" y="410" as="sourcePoint" />
            <mxPoint x="440" y="360" as="targetPoint" />
          </mxGeometry>
        </mxCell>
        <mxCell id="j_XLcCs_vJ3iD7UqQHrh-22" value="" style="endArrow=classic;html=1;rounded=0;exitX=0;exitY=0.5;exitDx=0;exitDy=0;entryX=0.87;entryY=0.8;entryDx=0;entryDy=0;entryPerimeter=0;" edge="1" parent="1" source="j_XLcCs_vJ3iD7UqQHrh-19" target="j_XLcCs_vJ3iD7UqQHrh-6">
          <mxGeometry width="50" height="50" relative="1" as="geometry">
            <mxPoint x="390" y="410" as="sourcePoint" />
            <mxPoint x="440" y="360" as="targetPoint" />
          </mxGeometry>
        </mxCell>
        <mxCell id="j_XLcCs_vJ3iD7UqQHrh-23" value="" style="endArrow=classic;html=1;rounded=0;exitX=0;exitY=0.5;exitDx=0;exitDy=0;" edge="1" parent="1" source="j_XLcCs_vJ3iD7UqQHrh-18" target="j_XLcCs_vJ3iD7UqQHrh-6">
          <mxGeometry width="50" height="50" relative="1" as="geometry">
            <mxPoint x="390" y="410" as="sourcePoint" />
            <mxPoint x="440" y="360" as="targetPoint" />
          </mxGeometry>
        </mxCell>
        <mxCell id="j_XLcCs_vJ3iD7UqQHrh-24" value="Ce que le système fournit (interfaces)" style="text;html=1;strokeColor=none;fillColor=none;align=center;verticalAlign=middle;whiteSpace=wrap;rounded=0;fontFamily=Comic Sans MS;fontSize=20;" vertex="1" parent="1">
          <mxGeometry x="75" y="780" width="150" height="30" as="geometry" />
        </mxCell>
        <mxCell id="j_XLcCs_vJ3iD7UqQHrh-25" value="Ce dont le système à besoin" style="text;html=1;strokeColor=none;fillColor=none;align=center;verticalAlign=middle;whiteSpace=wrap;rounded=0;fontFamily=Comic Sans MS;fontSize=20;" vertex="1" parent="1">
          <mxGeometry x="575" y="780" width="140" height="30" as="geometry" />
        </mxCell>
        <mxCell id="j_XLcCs_vJ3iD7UqQHrh-26" value="" style="shape=hexagon;perimeter=hexagonPerimeter2;whiteSpace=wrap;html=1;fixedSize=1;size=71;" vertex="1" parent="1">
          <mxGeometry x="235" y="660" width="330" height="260" as="geometry" />
        </mxCell>
        <mxCell id="j_XLcCs_vJ3iD7UqQHrh-27" value="Domaine Métier" style="shape=hexagon;perimeter=hexagonPerimeter2;whiteSpace=wrap;html=1;fixedSize=1;size=50;fontFamily=Comic Sans MS;fontSize=19;fillColor=#f5f5f5;fontColor=#333333;strokeColor=#666666;" vertex="1" parent="1">
          <mxGeometry x="290" y="695" width="220" height="190" as="geometry" />
        </mxCell>
        <mxCell id="j_XLcCs_vJ3iD7UqQHrh-28" value="" style="endArrow=none;html=1;rounded=0;entryX=0.5;entryY=0;entryDx=0;entryDy=0;exitX=0.5;exitY=0;exitDx=0;exitDy=0;" edge="1" parent="1" source="j_XLcCs_vJ3iD7UqQHrh-27" target="j_XLcCs_vJ3iD7UqQHrh-26">
          <mxGeometry width="50" height="50" relative="1" as="geometry">
            <mxPoint x="395" y="870" as="sourcePoint" />
            <mxPoint x="445" y="820" as="targetPoint" />
          </mxGeometry>
        </mxCell>
        <mxCell id="j_XLcCs_vJ3iD7UqQHrh-29" value="" style="endArrow=none;html=1;rounded=0;entryX=0.5;entryY=1;entryDx=0;entryDy=0;exitX=0.5;exitY=1;exitDx=0;exitDy=0;" edge="1" parent="1" source="j_XLcCs_vJ3iD7UqQHrh-26" target="j_XLcCs_vJ3iD7UqQHrh-27">
          <mxGeometry width="50" height="50" relative="1" as="geometry">
            <mxPoint x="410" y="705" as="sourcePoint" />
            <mxPoint x="410" y="670" as="targetPoint" />
          </mxGeometry>
        </mxCell>
        <mxCell id="j_XLcCs_vJ3iD7UqQHrh-30" value="API" style="text;html=1;strokeColor=none;fillColor=none;align=center;verticalAlign=middle;whiteSpace=wrap;rounded=0;fontStyle=1;fontFamily=Comic Sans MS;fontSize=18;" vertex="1" parent="1">
          <mxGeometry x="235" y="775" width="60" height="30" as="geometry" />
        </mxCell>
        <mxCell id="j_XLcCs_vJ3iD7UqQHrh-31" value="SPI" style="text;html=1;strokeColor=none;fillColor=none;align=center;verticalAlign=middle;whiteSpace=wrap;rounded=0;fontStyle=1;fontFamily=Comic Sans MS;fontSize=18;" vertex="1" parent="1">
          <mxGeometry x="505" y="775" width="60" height="30" as="geometry" />
        </mxCell>
        <mxCell id="j_XLcCs_vJ3iD7UqQHrh-32" value="HTTP&amp;nbsp;" style="text;html=1;strokeColor=#82b366;fillColor=#d5e8d4;align=center;verticalAlign=middle;whiteSpace=wrap;rounded=0;fontFamily=Comic Sans MS;fontSize=16;rotation=0;" vertex="1" parent="1">
          <mxGeometry x="115" y="630" width="110" height="50" as="geometry" />
        </mxCell>
        <mxCell id="j_XLcCs_vJ3iD7UqQHrh-33" value="JMS&amp;nbsp;" style="text;html=1;strokeColor=#82b366;fillColor=#d5e8d4;align=center;verticalAlign=middle;whiteSpace=wrap;rounded=0;fontFamily=Comic Sans MS;fontSize=16;rotation=0;" vertex="1" parent="1">
          <mxGeometry x="115" y="890" width="110" height="50" as="geometry" />
        </mxCell>
        <mxCell id="j_XLcCs_vJ3iD7UqQHrh-34" value="SQL" style="text;html=1;strokeColor=#6c8ebf;fillColor=#dae8fc;align=center;verticalAlign=middle;whiteSpace=wrap;rounded=0;fontFamily=Comic Sans MS;fontSize=16;rotation=0;" vertex="1" parent="1">
          <mxGeometry x="605" y="630" width="110" height="50" as="geometry" />
        </mxCell>
        <mxCell id="j_XLcCs_vJ3iD7UqQHrh-35" value="JMS" style="text;html=1;strokeColor=#6c8ebf;fillColor=#dae8fc;align=center;verticalAlign=middle;whiteSpace=wrap;rounded=0;fontFamily=Comic Sans MS;fontSize=16;rotation=0;" vertex="1" parent="1">
          <mxGeometry x="605" y="885" width="110" height="50" as="geometry" />
        </mxCell>
        <mxCell id="j_XLcCs_vJ3iD7UqQHrh-36" value="" style="endArrow=classic;html=1;rounded=0;exitX=1;exitY=0.5;exitDx=0;exitDy=0;entryX=0.5;entryY=0;entryDx=0;entryDy=0;" edge="1" parent="1" source="j_XLcCs_vJ3iD7UqQHrh-32" target="j_XLcCs_vJ3iD7UqQHrh-40">
          <mxGeometry width="50" height="50" relative="1" as="geometry">
            <mxPoint x="395" y="870" as="sourcePoint" />
            <mxPoint x="445" y="820" as="targetPoint" />
          </mxGeometry>
        </mxCell>
        <mxCell id="j_XLcCs_vJ3iD7UqQHrh-37" value="" style="endArrow=classic;html=1;rounded=0;exitX=1;exitY=0.5;exitDx=0;exitDy=0;entryX=0.414;entryY=0.926;entryDx=0;entryDy=0;entryPerimeter=0;" edge="1" parent="1" source="j_XLcCs_vJ3iD7UqQHrh-33" target="j_XLcCs_vJ3iD7UqQHrh-42">
          <mxGeometry width="50" height="50" relative="1" as="geometry">
            <mxPoint x="395" y="870" as="sourcePoint" />
            <mxPoint x="445" y="820" as="targetPoint" />
          </mxGeometry>
        </mxCell>
        <mxCell id="j_XLcCs_vJ3iD7UqQHrh-38" value="" style="endArrow=classic;html=1;rounded=0;exitX=0;exitY=0.5;exitDx=0;exitDy=0;entryX=0.5;entryY=1;entryDx=0;entryDy=0;" edge="1" parent="1" source="j_XLcCs_vJ3iD7UqQHrh-35" target="j_XLcCs_vJ3iD7UqQHrh-44">
          <mxGeometry width="50" height="50" relative="1" as="geometry">
            <mxPoint x="395" y="870" as="sourcePoint" />
            <mxPoint x="445" y="820" as="targetPoint" />
          </mxGeometry>
        </mxCell>
        <mxCell id="j_XLcCs_vJ3iD7UqQHrh-39" value="" style="endArrow=classic;html=1;rounded=0;exitX=0;exitY=0.5;exitDx=0;exitDy=0;entryX=0.5;entryY=0;entryDx=0;entryDy=0;" edge="1" parent="1" source="j_XLcCs_vJ3iD7UqQHrh-34" target="j_XLcCs_vJ3iD7UqQHrh-43">
          <mxGeometry width="50" height="50" relative="1" as="geometry">
            <mxPoint x="395" y="870" as="sourcePoint" />
            <mxPoint x="445" y="820" as="targetPoint" />
          </mxGeometry>
        </mxCell>
        <mxCell id="j_XLcCs_vJ3iD7UqQHrh-40" value="controlleur" style="ellipse;whiteSpace=wrap;html=1;rotation=-60;fontFamily=Comic Sans MS;fontSize=10;fillColor=#d5e8d4;strokeColor=#82b366;" vertex="1" parent="1">
          <mxGeometry x="260" y="710" width="84" height="20" as="geometry" />
        </mxCell>
        <mxCell id="j_XLcCs_vJ3iD7UqQHrh-42" value="jmsListerner" style="ellipse;whiteSpace=wrap;html=1;rotation=60;fontFamily=Comic Sans MS;fontSize=10;fillColor=#d5e8d4;strokeColor=#82b366;" vertex="1" parent="1">
          <mxGeometry x="260" y="850" width="84" height="20" as="geometry" />
        </mxCell>
        <mxCell id="j_XLcCs_vJ3iD7UqQHrh-43" value="repositoty" style="ellipse;whiteSpace=wrap;html=1;rotation=60;fontFamily=Comic Sans MS;fontSize=10;fillColor=#dae8fc;strokeColor=#6c8ebf;" vertex="1" parent="1">
          <mxGeometry x="460" y="720" width="84" height="20" as="geometry" />
        </mxCell>
        <mxCell id="j_XLcCs_vJ3iD7UqQHrh-44" value="jmsProducer" style="ellipse;whiteSpace=wrap;html=1;rotation=-60;fontFamily=Comic Sans MS;fontSize=10;fillColor=#dae8fc;strokeColor=#6c8ebf;" vertex="1" parent="1">
          <mxGeometry x="460" y="850" width="84" height="20" as="geometry" />
        </mxCell>
      </root>
    </mxGraphModel>
  </diagram>
</mxfile>
